<?xml version="1.0" encoding="UTF-8"?>
<svg version="1.1" xmlns="http://www.w3.org/2000/svg" width="1366" height="768">
<path d="M0 0 C2.23525035 0.68636625 2.23525035 0.68636625 4 1 C4 1.66 4 2.32 4 3 C5.32 3 6.64 3 8 3 C8 3.66 8 4.32 8 5 C8.7425 5.12375 9.485 5.2475 10.25 5.375 C13.97838339 6.22235986 16.2941453 7.2941453 19 10 C19.99 10.66 20.98 11.32 22 12 C25 14 25 14 27 16 C28.80635246 17.49764557 30.62063574 18.98475795 32.44140625 20.46484375 C34 22 34 22 35 25 C37.01508358 25.73323796 37.01508358 25.73323796 39 26 C39.33 27.32 39.66 28.64 40 30 C40.99 30 41.98 30 43 30 C43 30.99 43 31.98 43 33 C43.556875 33.226875 44.11375 33.45375 44.6875 33.6875 C49.28629304 36.29762578 52.78824153 40.20785665 55 45 C54.67365194 46.33506024 54.3387905 47.66804284 54 49 C53.95600091 51.1037066 53.96044569 53.20870514 54 55.3125 C54.04007463 61.29029962 53.74307242 66.63965232 51.9375 72.375 C50.98231895 76.06836673 50.96054084 78.9799771 51.0625 82.74609375 C50.98158775 85.66399185 50.23475051 88.18242062 49.43359375 90.97265625 C48.9549788 93.21050453 48.97148222 95.1541409 49.0625 97.4375 C49.19896926 102.34186413 47.93117684 106.51726827 46 111 C45 112 45 112 43.09814453 112.09765625 C41.87780518 112.08025391 41.87780518 112.08025391 40.6328125 112.0625 C39.74722656 112.05476563 38.86164063 112.04703125 37.94921875 112.0390625 C36.07421725 112.01312887 34.19921723 111.98708811 32.32421875 111.9609375 C31.43605469 111.95320313 30.54789063 111.94546875 29.6328125 111.9375 C28.81699707 111.92589844 28.00118164 111.91429687 27.16064453 111.90234375 C24.8154679 111.90980479 24.8154679 111.90980479 22 113 C22 112.34 22 111.68 22 111 C20.6696875 111.495 20.6696875 111.495 19.3125 112 C16.24389276 112.926372 14.15194649 113.08294596 11 113 C9.66634178 113.33203109 8.33304348 113.66550939 7 114 C5.58572901 114.16747946 4.16865446 114.3124747 2.75 114.4375 C-0.32949016 114.75101131 -3.20174889 115.24872523 -6.1875 116.0625 C-9.65104351 116.91419103 -12.45949045 117.17702548 -16 117 C-16 117.66 -16 118.32 -16 119 C-17.051875 119.12375 -18.10375 119.2475 -19.1875 119.375 C-26.03237544 120.49711073 -31.93310686 123.85553412 -38.13671875 126.85546875 C-39.08160156 127.23316406 -40.02648437 127.61085938 -41 128 C-41.66 127.67 -42.32 127.34 -43 127 C-43 127.66 -43 128.32 -43 129 C-45.9826906 130.52448631 -48.818202 131.93940067 -52 133 C-53.1446875 134.1446875 -53.1446875 134.1446875 -54.3125 135.3125 C-57 138 -57 138 -59.9375 139.875 C-65.6264191 143.82241326 -69.26578905 149.2653189 -73 155 C-73.66 155.66 -74.32 156.32 -75 157 C-78.48522459 162.80870765 -80.59737658 168.37918387 -81.640625 175.06640625 C-82 177 -82 177 -83 178 C-83.25236393 181.22135141 -83.18523329 184.45743977 -83.1875 187.6875 C-83.20586914 189.03618164 -83.20586914 189.03618164 -83.22460938 190.41210938 C-83.23556877 195.39132769 -82.82981433 199.30299628 -81 204 C-80.95919217 205.99958364 -80.95745644 208.00045254 -81 210 C-80.66880781 211.66709347 -80.3352153 213.33371083 -80 215 C-79.71467692 217.75812314 -79.49865949 220.51704361 -79.28125 223.28125 C-79.04958726 225.97965315 -79.04958726 225.97965315 -78.47265625 228.51171875 C-77.96728896 231.17220604 -77.90143523 233.60764212 -77.9375 236.3125 C-77.94652344 237.19550781 -77.95554687 238.07851563 -77.96484375 238.98828125 C-77.97644531 239.65214844 -77.98804688 240.31601562 -78 241 C-77.34 241 -76.68 241 -76 241 C-76.01160156 241.66386719 -76.02320313 242.32773437 -76.03515625 243.01171875 C-76.04417969 243.89472656 -76.05320312 244.77773438 -76.0625 245.6875 C-76.07410156 246.55761719 -76.08570313 247.42773438 -76.09765625 248.32421875 C-76.05652358 251.41167679 -76.05652358 251.41167679 -75 256 C-75 259.63 -75 263.26 -75 267 C-84.24 267 -93.48 267 -103 267 C-106.34692824 259.19050077 -106.34692824 259.19050077 -106.0625 255.375 C-105.87217196 252.67136574 -105.93574261 251.15869235 -106.96484375 248.6171875 C-108.17220328 245.56461813 -108.34189784 243.02271473 -108.5 239.75 C-108.84477093 234.3013879 -109.68730721 229.28278806 -111 224 C-112.13793103 218.4137931 -112.13793103 218.4137931 -111 215 C-111.66 214.67 -112.32 214.34 -113 214 C-113 212.68 -113 211.36 -113 210 C-113.3267961 207.66574212 -113.66140041 205.33257494 -114 203 C-114.25531802 200.38004427 -114.49382927 197.7594551 -114.71875 195.13671875 C-114.88799965 192.95177979 -114.88799965 192.95177979 -116 191 C-116.10002925 189.44859347 -116.1383245 187.89299138 -116.14526367 186.33837891 C-116.15164352 185.37042389 -116.15802338 184.40246887 -116.16459656 183.40518188 C-116.16626579 181.83176529 -116.16626579 181.83176529 -116.16796875 180.2265625 C-116.17129715 179.15127289 -116.17462555 178.07598328 -116.17805481 176.96810913 C-116.1831246 174.6900068 -116.18546312 172.41189703 -116.18530273 170.13378906 C-116.18748662 166.64635982 -116.20563483 163.15924812 -116.22460938 159.671875 C-116.22754378 157.46093858 -116.22952826 155.25000066 -116.23046875 153.0390625 C-116.23765427 151.99416656 -116.24483978 150.94927063 -116.25224304 149.87271118 C-116.24916641 148.89845184 -116.24608978 147.9241925 -116.24291992 146.92041016 C-116.24434494 146.06484528 -116.24576996 145.2092804 -116.24723816 144.32778931 C-115.97837979 141.79644201 -115.19000374 140.22446493 -114 138 C-114 137.21625 -114 136.4325 -114 135.625 C-114 130.06130998 -111.18865586 125.01566967 -109 120 C-108.32723284 118.3357865 -107.65793165 116.67013418 -107 115 C-106.34 115 -105.68 115 -105 115 C-105.33 114.01 -105.66 113.02 -106 112 C-105.01 111.01 -105.01 111.01 -104 110 C-103.67 109.01 -103.34 108.02 -103 107 C-102.01 106.505 -102.01 106.505 -101 106 C-100.27840576 104.35636866 -99.60648579 102.68949614 -99 101 C-98.34 101 -97.68 101 -97 101 C-96.67 99.68 -96.34 98.36 -96 97 C-95.34 97 -94.68 97 -94 97 C-93.67 95.68 -93.34 94.36 -93 93 C-92.34 93 -91.68 93 -91 93 C-90.505 91.515 -90.505 91.515 -90 90 C-88.515 89.505 -88.515 89.505 -87 89 C-85.97591432 88.0246803 -84.98165594 87.01801357 -84 86 C-80.31906424 82.63914561 -77.94438242 80.70634035 -73 80 C-72.67 79.34 -72.34 78.68 -72 78 C-70.66666667 77.66666667 -69.33333333 77.33333333 -68 77 C-67.67 76.34 -67.34 75.68 -67 75 C-66.01 75 -65.02 75 -64 75 C-63.67 74.34 -63.34 73.68 -63 73 C-58.98369194 70.66493717 -55.55797311 69.67884706 -51 69 C-49.327767 68.34742127 -47.66072849 67.68132451 -46 67 C-44.33813768 66.64348562 -42.67056149 66.31323028 -41 66 C-39.67162109 65.73509766 -39.67162109 65.73509766 -38.31640625 65.46484375 C-33.43592225 64.53028298 -28.97189474 64 -24 64 C-22.09948897 63.48460718 -20.19909742 62.96873172 -18.30078125 62.4453125 C-13.91166246 61.59580564 -9.45051725 61.85274024 -5 62 C-5.639375 61.71125 -6.27875 61.4225 -6.9375 61.125 C-9 60 -9 60 -10 58 C-11.83722125 56.97175233 -11.83722125 56.97175233 -14.0625 56.0625 C-14.866875 55.71832031 -15.67125 55.37414062 -16.5 55.01953125 C-19.97453648 53.60257184 -23.47355103 52.28234508 -27 51 C-27 50.34 -27 49.68 -27 49 C-27.7425 49.20625 -28.485 49.4125 -29.25 49.625 C-32 50 -32 50 -33.6484375 49.0390625 C-37.14485321 47.49413463 -40.62256505 47.7113151 -44.375 47.75 C-45.1175 47.74226563 -45.86 47.73453125 -46.625 47.7265625 C-51.14472064 47.74253324 -54.74004244 48.32690488 -59 50 C-60.33333333 50.33333333 -61.66666667 50.66666667 -63 51 C-63.99 51.33 -64.98 51.66 -66 52 C-68.32973806 52.77657935 -70.61055133 53.44858877 -73 54 C-74.16155702 48.19221491 -73.86345187 44.58110814 -71.76953125 39.0546875 C-70.90128797 36.73643387 -70.39380006 34.44156036 -70 32 C-69.34 32 -68.68 32 -68 32 C-68 30.35 -68 28.7 -68 27 C-67.34 27 -66.68 27 -66 27 C-66.061875 26.236875 -66.12375 25.47375 -66.1875 24.6875 C-65.95889484 21.41082601 -65.24454276 21.21723689 -63 19 C-62.32984368 17.66760259 -61.70537049 16.3113859 -61.125 14.9375 C-59.34259171 11.15934498 -59.34259171 11.15934498 -56.3125 9.75 C-55.549375 9.5025 -54.78625 9.255 -54 9 C-53.11306697 6.95894361 -53.11306697 6.95894361 -53 5 C-52.360625 4.87625 -51.72125 4.7525 -51.0625 4.625 C-50.381875 4.41875 -49.70125 4.2125 -49 4 C-48.67 3.34 -48.34 2.68 -48 2 C-45.67378885 0.44919257 -43.49906822 -0.79077344 -41 -2 C-40.34 -2.33 -39.68 -2.66 -39 -3 C-36.875 -2.5625 -36.875 -2.5625 -35 -2 C-35 -2.66 -35 -3.32 -35 -4 C-22.9163068 -6.01394887 -11.01447374 -5.50723687 0 0 Z " fill="#768540" transform="translate(674,196)"/>
<path d="M0 0 C5.94 0 11.88 0 18 0 C21.01598555 3.01598555 21.181456 3.27184161 22 7 C22.77763304 8.6419708 23.59308556 10.2663529 24.4375 11.875 C26.30727764 15.5285885 27.78426337 19.0722355 29 23 C29.63815344 24.34721283 30.29325371 25.68747118 31 27 C33.33075929 26.04134491 33.33075929 26.04134491 35 23 C35.309375 22.071875 35.61875 21.14375 35.9375 20.1875 C37.0239298 16.92821061 38.41259408 14.04252801 40 11 C41.86966816 7.37751794 43.37471599 3.79232935 45 0 C51.27 0 57.54 0 64 0 C64 21.33333333 64 42.66666667 64 64 C57.4 64 50.8 64 44 64 C44 61 44 61 45 59 C45.08426094 57.3325394 45.10725143 55.66174813 45.09765625 53.9921875 C45.09443359 53.00605469 45.09121094 52.01992188 45.08789062 51.00390625 C45.07951172 49.97136719 45.07113281 48.93882812 45.0625 47.875 C45.05798828 46.83472656 45.05347656 45.79445313 45.04882812 44.72265625 C45.03701952 42.14838038 45.02055075 39.57421854 45 37 C44.505 37.99 44.505 37.99 44 39 C43.34 39 42.68 39 42 39 C41.67 41.31 41.34 43.62 41 46 C40.34 46 39.68 46 39 46 C39.0825 46.66 39.165 47.32 39.25 48 C38.77931309 53.64824295 35.58784902 58.69458118 32 63 C31.17977251 61.92250558 30.36913831 60.83770492 29.5625 59.75 C29.11003906 59.14671875 28.65757812 58.5434375 28.19140625 57.921875 C26.95213565 55.92278932 26.49306993 54.28220941 26 52 C25.443125 50.948125 25.443125 50.948125 24.875 49.875 C24.58625 49.25625 24.2975 48.6375 24 48 C24.33 47.34 24.66 46.68 25 46 C24.34 45.67 23.68 45.34 23 45 C22.375 41.9375 22.375 41.9375 22 39 C21.34 39 20.68 39 20 39 C19.67 38.34 19.34 37.68 19 37 C18.94185915 40.58326501 18.90635643 44.16640838 18.875 47.75 C18.85824219 48.76578125 18.84148437 49.7815625 18.82421875 50.828125 C18.81777344 51.8078125 18.81132812 52.7875 18.8046875 53.796875 C18.79421387 54.69760742 18.78374023 55.59833984 18.77294922 56.52636719 C19.01278324 59.13926856 19.67687936 60.75664666 21 63 C20.67 63.33 20.34 63.66 20 64 C13.4 64 6.8 64 0 64 C0 42.88 0 21.76 0 0 Z M18 32 C19 34 19 34 19 34 Z M45 32 C46 34 46 34 46 34 Z " fill="#A9966A" transform="translate(487,382)"/>
<path d="M0 0 C2.51093906 2.06291397 3.84750498 3.22165816 4.48101807 6.45513916 C4.4676944 7.82747711 4.4676944 7.82747711 4.45410156 9.22753906 C4.45379944 10.26831604 4.45349731 11.30909302 4.45318604 12.38140869 C4.43254089 13.49820007 4.41189575 14.61499146 4.390625 15.765625 C4.38496521 16.91415955 4.37930542 18.06269409 4.37347412 19.24603271 C4.35108331 22.91444574 4.30087942 26.58188217 4.25 30.25 C4.22993861 32.73696506 4.21168722 35.22394543 4.1953125 37.7109375 C4.15120955 43.80762489 4.08426949 49.90374267 4 56 C4.66 56 5.32 56 6 56 C6 58.66666667 6 61.33333333 6 64 C-0.6 64 -7.2 64 -14 64 C-13.67 58.39 -13.34 52.78 -13 47 C-19.435 47.495 -19.435 47.495 -26 48 C-25.61471495 54.16456078 -23.52913975 57.98627748 -20 63 C-22.25890195 65.25890195 -27.34383438 64.3263953 -30.375 64.375 C-31.2515625 64.41238281 -32.128125 64.44976562 -33.03125 64.48828125 C-35.44847232 64.52154578 -37.63005127 64.47964278 -40 64 C-46.02068221 57.4844672 -46.27060632 45.94581389 -46.3125 37.4375 C-46.31789795 36.75905029 -46.3232959 36.08060059 -46.32885742 35.3815918 C-46.27595215 31.71088607 -45.85145419 29.16260074 -44 26 C-43.87625 25.05125 -43.7525 24.1025 -43.625 23.125 C-42.86389533 19.31947663 -41.2624985 17.12757145 -39 14 C-38.505 13.13375 -38.01 12.2675 -37.5 11.375 C-35.89676645 8.83654688 -34.29463177 6.93609556 -32 5 C-31.01 5 -30.02 5 -29 5 C-28.690625 4.071875 -28.690625 4.071875 -28.375 3.125 C-26.42791549 0.11586939 -24.39943034 -0.11614811 -21 -1 C-20.38640625 -1.17789062 -19.7728125 -1.35578125 -19.140625 -1.5390625 C-12.95893504 -2.87015632 -5.71726193 -2.78890826 0 0 Z M-20 16 C-24.23518738 20.25278182 -24.23518738 20.25278182 -25 26 C-25.66 26 -26.32 26 -27 26 C-27 27.98 -27 29.96 -27 32 C-22.38 32 -17.76 32 -13 32 C-13 26.06 -13 20.12 -13 14 C-16.28565953 14 -17.28509275 14.24329531 -20 16 Z " fill="#AD986C" transform="translate(754,382)"/>
<path d="M0 0 C0 0.66 0 1.32 0 2 C0.763125 2.12375 1.52625 2.2475 2.3125 2.375 C5 3 5 3 8 5 C8 5.99 8 6.98 8 8 C8.99 8.33 9.98 8.66 11 9 C11 9.99 11 10.98 11 12 C11.66 12.33 12.32 12.66 13 13 C15.45484326 16.54588471 15.29003461 19.7944981 15 24 C14 27.4375 14 27.4375 13 30 C12.34 30 11.68 30 11 30 C10.79375 30.7425 10.5875 31.485 10.375 32.25 C8.59545636 35.80908727 6.36205271 36.96875982 3 39 C2.34 39.66 1.68 40.32 1 41 C1.66 41 2.32 41 3 41 C3.495 44.96 3.495 44.96 4 49 C4.66 49 5.32 49 6 49 C6.268125 50.0725 6.53625 51.145 6.8125 52.25 C7.87631151 55.60940478 8.83366479 57.34131588 11 60 C11 60.66 11 61.32 11 62 C11.66 62 12.32 62 13 62 C13 62.66 13 63.32 13 64 C5.08 64 -2.84 64 -11 64 C-10.34 62.35 -9.68 60.7 -9 59 C-9.66 59 -10.32 59 -11 59 C-11.144375 58.195625 -11.28875 57.39125 -11.4375 56.5625 C-11.74135249 54.07896294 -11.74135249 54.07896294 -13 53 C-13.04063832 51.33382885 -13.042721 49.66611905 -13 48 C-13.66 47.67 -14.32 47.34 -15 47 C-14.67 46.34 -14.34 45.68 -14 45 C-14.66 45 -15.32 45 -16 45 C-16.33 44.01 -16.66 43.02 -17 42 C-16.67 41.34 -16.34 40.68 -16 40 C-16.66 40 -17.32 40 -18 40 C-18.02901394 43.4374823 -18.04680335 46.87493312 -18.0625 50.3125 C-18.07087891 51.28896484 -18.07925781 52.26542969 -18.08789062 53.27148438 C-18.09111328 54.20927734 -18.09433594 55.14707031 -18.09765625 56.11328125 C-18.10289307 56.97735596 -18.10812988 57.84143066 -18.11352539 58.73168945 C-18.09335523 61.16728714 -18.09335523 61.16728714 -17 64 C-23.6 64 -30.2 64 -37 64 C-37 61.69 -37 59.38 -37 57 C-36.34 57 -35.68 57 -35 57 C-35 40.83 -35 24.66 -35 8 C-35.66 8 -36.32 8 -37 8 C-37.38063221 5.6739143 -37.71269945 3.33944736 -38 1 C-36.06588153 -0.93411847 -32.46837459 -0.27702278 -29.82421875 -0.3515625 C-29.10265091 -0.37471527 -28.38108307 -0.39786804 -27.63764954 -0.42172241 C-26.10689506 -0.46943547 -24.57606135 -0.51466043 -23.04516602 -0.55761719 C-20.7075338 -0.62442743 -18.37045294 -0.70229719 -16.03320312 -0.78125 C-14.54689518 -0.8261934 -13.06056737 -0.87048523 -11.57421875 -0.9140625 C-10.87616623 -0.93796051 -10.17811371 -0.96185852 -9.45890808 -0.98648071 C-6.13870642 -1.07170737 -3.17191057 -1.05003277 0 0 Z M-19 13 C-19 17.62 -19 22.24 -19 27 C-12.46242535 27.4460995 -12.46242535 27.4460995 -6 27 C-3.4879561 24.75708588 -3.4879561 24.75708588 -2 22 C-2.12563582 19.73575649 -2.12563582 19.73575649 -3 18 C-3.66 18 -4.32 18 -5 18 C-5.33 17.01 -5.66 16.02 -6 15 C-9.31371 12.79086 -10.3446021 12.77518447 -14.1875 12.875 C-15.775625 12.91625 -17.36375 12.9575 -19 13 Z " fill="#AC986C" transform="translate(641,382)"/>
<path d="M0 0 C6.93 0 13.86 0 21 0 C21.33 0.66 21.66 1.32 22 2 C21.34 2 20.68 2 20 2 C19.02700844 6.85729645 18.87961195 11.4500625 18.9375 16.375 C18.94201172 17.11105469 18.94652344 17.84710938 18.95117188 18.60546875 C18.96284858 20.40368158 18.98077989 22.20185197 19 24 C23.62 24 28.24 24 33 24 C32.98839844 22.85660156 32.97679687 21.71320313 32.96484375 20.53515625 C32.95546712 19.04427246 32.94636679 17.55338691 32.9375 16.0625 C32.92912109 15.30775391 32.92074219 14.55300781 32.91210938 13.77539062 C32.90347559 11.85005687 32.94775667 9.92464419 33 8 C33.33 7.67 33.66 7.34 34 7 C33.34 4.69 32.68 2.38 32 0 C38.93 0 45.86 0 53 0 C53 1.65 53 3.3 53 5 C52.34 5 51.68 5 51 5 C51 23.48 51 41.96 51 61 C51.66 61 52.32 61 53 61 C53 61.99 53 62.98 53 64 C46.07 64 39.14 64 32 64 C32 63.34 32 62.68 32 62 C32.66 62 33.32 62 34 62 C34 60.35 34 58.7 34 57 C33.67 57 33.34 57 33 57 C33 50.73 33 44.46 33 38 C28.05 38 23.1 38 18 38 C18.11505742 40.83404585 18.24177725 43.66679619 18.375 46.5 C18.4059375 47.29148437 18.436875 48.08296875 18.46875 48.8984375 C18.50742187 49.68476563 18.54609375 50.47109375 18.5859375 51.28125 C18.63306885 52.34956055 18.63306885 52.34956055 18.68115234 53.43945312 C19.12650017 57.0158758 20.12589091 60.50356365 21 64 C13.74 64 6.48 64 -1 64 C-0.67 63.34 -0.34 62.68 0 62 C0.66 62 1.32 62 2 62 C1.83701416 61.45251602 1.67402832 60.90503204 1.50610352 60.34095764 C0.92949899 57.67390094 0.88744226 55.27392863 0.90234375 52.54467773 C0.90564697 51.45352158 0.9089502 50.36236542 0.91235352 49.23814392 C0.92065186 48.06514236 0.9289502 46.89214081 0.9375 45.68359375 C0.94317993 43.87158226 0.94317993 43.87158226 0.94897461 42.02296448 C0.96120037 38.16110697 0.97983256 34.29932372 1 30.4375 C1.02651699 25.35286663 1.04654894 20.26827001 1.0625 15.18359375 C1.07079834 14.00856796 1.07909668 12.83354218 1.08764648 11.62290955 C1.09094971 10.53490555 1.09425293 9.44690155 1.09765625 8.32592773 C1.10551147 6.88841408 1.10551147 6.88841408 1.11352539 5.42185974 C1.10310502 2.85688193 1.10310502 2.85688193 0 0 Z " fill="#AE996C" transform="translate(811,382)"/>
<path d="M0 0 C0.886875 0.680625 1.77375 1.36125 2.6875 2.0625 C3.326875 2.536875 3.96625 3.01125 4.625 3.5 C5.6875 5.0625 5.6875 5.0625 5.5 7.625 C4.6875 10.0625 4.6875 10.0625 2.6875 12.0625 C1.99001417 13.37997324 1.31790043 14.71164193 0.6875 16.0625 C0.0275 16.0625 -0.6325 16.0625 -1.3125 16.0625 C-1.3125 16.7225 -1.3125 17.3825 -1.3125 18.0625 C-4.05293223 17.01468768 -6.6054507 15.90328766 -9.1875 14.5 C-14.30037278 12.14807852 -18.87061803 11.57835037 -24.3125 13.0625 C-24.60973398 16.62957395 -24.60973398 16.62957395 -23.1875 19.8125 C-20.65413313 21.50141125 -18.30521937 21.63496866 -15.3125 22.0625 C-13.97113633 22.71285814 -12.63717746 23.3787955 -11.3125 24.0625 C-9.65235384 24.42692233 -7.98543936 24.76222883 -6.3125 25.0625 C-5.3225 25.3925 -4.3325 25.7225 -3.3125 26.0625 C-3.3125 26.7225 -3.3125 27.3825 -3.3125 28.0625 C-2.6525 28.0625 -1.9925 28.0625 -1.3125 28.0625 C-1.3125 28.7225 -1.3125 29.3825 -1.3125 30.0625 C-0.3225 30.0625 0.6675 30.0625 1.6875 30.0625 C1.6875 31.0525 1.6875 32.0425 1.6875 33.0625 C2.6775 33.3925 3.6675 33.7225 4.6875 34.0625 C6.61715898 39.85147693 7.11478973 46.96365283 4.5234375 52.58984375 C0.53728093 58.07847472 -4.03745737 60.70935902 -10.3125 63.0625 C-11.240625 63.43375 -12.16875 63.805 -13.125 64.1875 C-13.846875 64.47625 -14.56875 64.765 -15.3125 65.0625 C-15.3125 64.4025 -15.3125 63.7425 -15.3125 63.0625 C-16.3025 63.5575 -16.3025 63.5575 -17.3125 64.0625 C-23.2923136 64.4826503 -28.73475466 64.45296229 -34.3125 62.0625 C-35.735625 61.505625 -35.735625 61.505625 -37.1875 60.9375 C-37.88875 60.64875 -38.59 60.36 -39.3125 60.0625 C-39.3125 59.4025 -39.3125 58.7425 -39.3125 58.0625 C-40.2096875 57.9696875 -40.2096875 57.9696875 -41.125 57.875 C-43.3125 57.0625 -43.3125 57.0625 -45.1875 54.8125 C-46.3125 52.0625 -46.3125 52.0625 -45.875 49.75 C-43.67641426 45.96843253 -41.26814561 42.29925321 -38.3125 39.0625 C-37.6525 39.0625 -36.9925 39.0625 -36.3125 39.0625 C-36.3125 39.7225 -36.3125 40.3825 -36.3125 41.0625 C-35.755625 41.31 -35.19875 41.5575 -34.625 41.8125 C-32.3125 43.0625 -32.3125 43.0625 -29.6875 45.1875 C-27.55519401 47.2690481 -27.55519401 47.2690481 -25.3125 47.0625 C-25.3125 47.7225 -25.3125 48.3825 -25.3125 49.0625 C-23.85327307 48.94840407 -22.39509402 48.82084456 -20.9375 48.6875 C-20.12539063 48.61789062 -19.31328125 48.54828125 -18.4765625 48.4765625 C-16.10915809 48.23357412 -16.10915809 48.23357412 -14.3125 46.0625 C-14.24495166 43.99650917 -14.24495166 43.99650917 -15.3125 42.0625 C-17.67436139 40.80104232 -17.67436139 40.80104232 -20.3125 40.0625 C-22.18854138 39.43715287 -24.04828034 38.75742034 -25.875 38 C-28.18835307 36.94284031 -28.18835307 36.94284031 -30.3125 37.0625 C-30.3125 36.4025 -30.3125 35.7425 -30.3125 35.0625 C-31.240625 34.959375 -32.16875 34.85625 -33.125 34.75 C-36.45682059 34.03137203 -37.24986506 33.61623849 -39.3125 31.0625 C-39.869375 30.5675 -40.42625 30.0725 -41 29.5625 C-42.3125 28.0625 -42.3125 28.0625 -42.3125 25.0625 C-42.9725 25.0625 -43.6325 25.0625 -44.3125 25.0625 C-46.17636371 19.47090886 -45.69912555 12.91731731 -43.1171875 7.6015625 C-40.11880186 3.37870523 -37.20071559 0.97528001 -32.3125 -0.9375 C-31.631875 -1.30875 -30.95125 -1.68 -30.25 -2.0625 C-21.16962583 -6.16331414 -8.42645713 -4.92868247 0 0 Z " fill="#AB966A" transform="translate(701.3125,383.9375)"/>
<path d="M0 0 C1.5631897 0.00785522 1.5631897 0.00785522 3.15795898 0.01586914 C4.28266602 0.0190918 5.40737305 0.02231445 6.56616211 0.02563477 C7.75016602 0.03401367 8.93416992 0.04239258 10.15405273 0.05102539 C11.34192383 0.05553711 12.52979492 0.06004883 13.75366211 0.06469727 C16.69967499 0.07652864 19.64558954 0.09301252 22.59155273 0.11352539 C24.35800061 3.40247273 24.79407001 5.4860624 24.65405273 9.23852539 C24.45238478 12.81699345 24.45238478 12.81699345 25.59155273 16.11352539 C25.59155273 18.44685872 25.59155273 20.78019206 25.59155273 23.11352539 C25.83905273 24.45157227 25.83905273 24.45157227 26.09155273 25.81665039 C26.69464745 29.79330619 26.656735 33.6013853 26.59155273 37.61352539 C26.53123606 44.35528461 26.80998446 50.9767746 27.36889648 57.69946289 C27.74729546 63.50158055 27.67103926 69.30217754 27.59155273 75.11352539 C26.10655273 75.60852539 26.10655273 75.60852539 24.59155273 76.11352539 C24.59155273 76.77352539 24.59155273 77.43352539 24.59155273 78.11352539 C21.45805541 79.1580245 20.60187017 79.04776184 17.59155273 78.11352539 C17.59155273 78.77352539 17.59155273 79.43352539 17.59155273 80.11352539 C13.8577218 80.80819161 10.38424401 81.16521454 6.59155273 81.11352539 C6.61475586 80.31688477 6.63795898 79.52024414 6.66186523 78.69946289 C6.75950603 72.96655361 6.55131397 68.5316888 4.59155273 63.11352539 C4.12024917 59.45804897 3.8686879 55.78813234 3.59155273 52.11352539 C3.16205707 47.3095368 2.52959405 42.64688935 1.52905273 37.92602539 C0.74735208 34.22863835 0.59155273 30.89454859 0.59155273 27.11352539 C0.26155273 25.97915039 -0.06844727 24.84477539 -0.40844727 23.67602539 C-1.4506577 19.96315073 -1.40844727 16.94642747 -1.40844727 13.11352539 C-2.06283168 11.10947312 -2.72905553 9.10923862 -3.40844727 7.11352539 C-3.59594727 3.80102539 -3.59594727 3.80102539 -3.40844727 1.11352539 C-2.40844727 0.11352539 -2.40844727 0.11352539 0 0 Z " fill="#74833E" transform="translate(580.408447265625,502.886474609375)"/>
<path d="M0 0 C0.86825912 0.00222061 1.73651825 0.00444122 2.63108826 0.00672913 C3.61202957 0.00680466 4.59297089 0.00688019 5.6036377 0.00695801 C6.6702916 0.01211929 7.7369455 0.01728058 8.83592224 0.02259827 C9.92211349 0.02401321 11.00830475 0.02542816 12.12741089 0.02688599 C15.61230674 0.03250403 19.09713941 0.04505959 22.58201599 0.05775452 C24.93813486 0.06276719 27.29425473 0.0673305 29.65037537 0.07142639 C35.44011342 0.08247933 41.22980398 0.09975605 47.01951599 0.12025452 C47.01951599 5.73025452 47.01951599 11.34025452 47.01951599 17.12025452 C44.51542945 16.61943721 42.0109084 16.11831781 39.51951599 15.55775452 C36.9649548 15.11070631 34.60695291 15.09006775 32.01951599 15.12025452 C31.9942201 21.77714733 31.97667204 28.43402781 31.96458435 35.09095764 C31.95954673 37.35691287 31.95271647 39.62286484 31.94407654 41.8888092 C31.93198603 45.14044499 31.92628207 48.39203791 31.92185974 51.64369202 C31.91669846 52.66143707 31.91153717 53.67918213 31.90621948 54.72776794 C31.90614395 55.66859222 31.90606842 56.6094165 31.9059906 57.57875061 C31.90376999 58.40925934 31.90154938 59.23976807 31.89926147 60.09544373 C31.89042417 62.18990415 31.89042417 62.18990415 33.01951599 64.12025452 C26.08951599 64.12025452 19.15951599 64.12025452 12.01951599 64.12025452 C12.34951599 62.47025452 12.67951599 60.82025452 13.01951599 59.12025452 C13.10071404 57.58637282 13.13746796 56.04958804 13.13304138 54.51356506 C13.13292809 53.19276192 13.13292809 53.19276192 13.1328125 51.84527588 C13.12765121 50.90863602 13.12248993 49.97199615 13.11717224 49.00697327 C13.11575729 48.03742203 13.11434235 47.06787079 13.11288452 46.06893921 C13.10730112 42.98184585 13.09475163 39.89482584 13.08201599 36.80775452 C13.07699885 34.71075036 13.07243631 32.61374506 13.06834412 30.51673889 C13.05733711 25.3845493 13.04008387 20.25241434 13.01951599 15.12025452 C11.77170349 15.08931702 10.52389099 15.05837952 9.23826599 15.02650452 C8.53637146 15.00910217 7.83447693 14.99169983 7.11131287 14.97377014 C3.98108262 15.19297394 1.67199064 16.52876973 -0.98048401 18.12025452 C-2.98048401 16.12025452 -2.98048401 16.12025452 -3.21095276 12.67884827 C-3.20696312 11.30508148 -3.19221578 9.93131337 -3.16798401 8.55775452 C-3.16733948 7.85972717 -3.16669495 7.16169983 -3.16603088 6.44252014 C-3.11144083 0.18892594 -3.11144083 0.18892594 0 0 Z M8.01951599 13.12025452 C8.01951599 13.45025452 8.01951599 13.78025452 8.01951599 14.12025452 C9.99951599 14.12025452 11.97951599 14.12025452 14.01951599 14.12025452 C14.01951599 13.79025452 14.01951599 13.46025452 14.01951599 13.12025452 C12.03951599 13.12025452 10.05951599 13.12025452 8.01951599 13.12025452 Z M31.01951599 13.12025452 C31.01951599 13.45025452 31.01951599 13.78025452 31.01951599 14.12025452 C32.99951599 14.12025452 34.97951599 14.12025452 37.01951599 14.12025452 C37.01951599 13.79025452 37.01951599 13.46025452 37.01951599 13.12025452 C35.03951599 13.12025452 33.05951599 13.12025452 31.01951599 13.12025452 Z " fill="#A49168" transform="translate(762.9804840087891,381.87974548339844)"/>
<path d="M0 0 C0.33 -0.33 0.66 -0.66 1 -1 C2.99958364 -1.04080783 5.00045254 -1.04254356 7 -1 C7 1.66666667 7 4.33333333 7 7 C7.66 7.33 8.32 7.66 9 8 C8.690625 7.13375 8.690625 7.13375 8.375 6.25 C8 4 8 4 8.625 1.8125 C10 0 10 0 12.625 -0.75 C13.800625 -0.87375 13.800625 -0.87375 15 -1 C15.33 -0.01 15.66 0.98 16 2 C16.66 1.01 17.32 0.02 18 -1 C20.33837891 -1.34057617 20.33837891 -1.34057617 23.2265625 -1.29296875 C24.7734375 -1.2784668 24.7734375 -1.2784668 26.3515625 -1.26367188 C27.43179688 -1.23853516 28.51203125 -1.21339844 29.625 -1.1875 C30.71296875 -1.17396484 31.8009375 -1.16042969 32.921875 -1.14648438 C35.61507409 -1.11104754 38.30729374 -1.06164331 41 -1 C41 1.31 41 3.62 41 6 C39.68 6 38.36 6 37 6 C38.32 6.33 39.64 6.66 41 7 C40.67 8.65 40.34 10.3 40 12 C38.33388095 12.042721 36.66617115 12.04063832 35 12 C32.95301586 9.95301586 33.29954307 5.69588759 33 3 C32.896875 4.11375 32.79375 5.2275 32.6875 6.375 C32.460625 7.57125 32.23375 8.7675 32 10 C31.01 10.66 30.02 11.32 29 12 C26.23776722 9.23776722 26.42143709 6.79293383 26 3 C26 3.99 26 4.98 26 6 C25.01 6.33 24.02 6.66 23 7 C23 7.99 23 8.98 23 10 C19.55772114 12.08995502 19.55772114 12.08995502 17.0625 11.6875 C16.381875 11.460625 15.70125 11.23375 15 11 C13.33480481 10.65939189 11.66842534 10.32441604 10 10 C9.67 10.66 9.34 11.32 9 12 C8.34 12 7.68 12 7 12 C5.98099609 12.03480469 5.98099609 12.03480469 4.94140625 12.0703125 C4.15636719 12.08835937 3.37132812 12.10640625 2.5625 12.125 C1.38880859 12.15980469 1.38880859 12.15980469 0.19140625 12.1953125 C-2 12 -2 12 -5 10 C-6.68437744 10.62056011 -8.35008418 11.29289322 -10 12 C-12.75 12.1875 -12.75 12.1875 -15 12 C-16 11 -16 11 -16.09765625 8.27734375 C-16.08605469 7.17519531 -16.07445312 6.07304687 -16.0625 4.9375 C-16.05347656 3.83277344 -16.04445313 2.72804688 -16.03515625 1.58984375 C-16.02355469 0.73519531 -16.01195312 -0.11945313 -16 -1 C-14.14375 -0.9690625 -14.14375 -0.9690625 -12.25 -0.9375 C-9.86914336 -0.92492505 -8.05355351 -0.98512403 -5.75 -1.625 C-3.30470253 -2.14899232 -2.07956407 -1.26259247 0 0 Z M-6 2 C-5 4 -5 4 -5 4 Z M-1 5 C0 7 0 7 0 7 Z " fill="#61742F" transform="translate(814,474)"/>
<path d="M0 0 C3.21399233 -0.08927756 5.9062789 0.1465597 9 1 C9.66 1 10.32 1 11 1 C11.66 1.99 12.32 2.98 13 4 C13.66 3.01 14.32 2.02 15 1 C15.99 1 16.98 1 18 1 C18 3.31 18 5.62 18 8 C18.66 8 19.32 8 20 8 C20.144375 7.401875 20.28875 6.80375 20.4375 6.1875 C20.8872439 4.43849596 21.42892341 2.71322977 22 1 C23.875 1.3125 23.875 1.3125 26 2 C26.99 3.485 26.99 3.485 28 5 C28.33 3.68 28.66 2.36 29 1 C34.625 -0.125 34.625 -0.125 38 1 C40.39490986 1.06970052 42.79167691 1.08448003 45.1875 1.0625 C46.45980469 1.05347656 47.73210938 1.04445313 49.04296875 1.03515625 C50.01878906 1.02355469 50.99460937 1.01195312 52 1 C52 1.66 52 2.32 52 3 C52.99 2.34 53.98 1.68 55 1 C56.32 1 57.64 1 59 1 C58.34 3.31 57.68 5.62 57 8 C56.34 8 55.68 8 55 8 C55 9.65 55 11.3 55 13 C54.01 13 53.02 13 52 13 C51.731875 11.865625 51.46375 10.73125 51.1875 9.5625 C50.5996875 7.7990625 50.5996875 7.7990625 50 6 C49.01 5.67 48.02 5.34 47 5 C47 7.64 47 10.28 47 13 C46.01 13 45.02 13 44 13 C44 10.36 44 7.72 44 5 C43.01 5 42.02 5 41 5 C41 7.64 41 10.28 41 13 C37.51453502 13.87136625 35.42947121 13.8573678 32 13 C31.195625 13.165 30.39125 13.33 29.5625 13.5 C26.70082936 14.05837476 24.82221625 13.59415079 22 13 C21.01 13.33 20.02 13.66 19 14 C16.8125 13.5625 16.8125 13.5625 15 13 C14.896875 12.360625 14.79375 11.72125 14.6875 11.0625 C14.460625 10.381875 14.23375 9.70125 14 9 C13.01 8.67 12.02 8.34 11 8 C11 9.98 11 11.96 11 14 C10.113125 13.814375 9.22625 13.62875 8.3125 13.4375 C5.14821189 13.01957516 3.05160358 13.19222258 0 14 C0 13.34 0 12.68 0 12 C-0.66 12 -1.32 12 -2 12 C-3.76462683 8.91190305 -4 7.76687864 -4 4 C-3.34 4 -2.68 4 -2 4 C-1.34 2.68 -0.68 1.36 0 0 Z M1 5 C1 6.32 1 7.64 1 9 C2.98 9 4.96 9 7 9 C6.34 7.35 5.68 5.7 5 4 C3.63106761 3.94729537 3.63106761 3.94729537 1 5 Z M37 6 C36.67 6.66 36.34 7.32 36 8 C36.99 9.485 36.99 9.485 38 11 C38 9.35 38 7.7 38 6 C37.67 6 37.34 6 37 6 Z " fill="#6A7D33" transform="translate(598,472)"/>
<path d="M0 0 C2.3125 -0.25 2.3125 -0.25 5 0 C6.75 1.9375 6.75 1.9375 8 4 C8.33 4.33 8.66 4.66 9 5 C9.433125 4.34 9.86625 3.68 10.3125 3 C10.869375 2.34 11.42625 1.68 12 1 C12.99 1 13.98 1 15 1 C15.66 2.32 16.32 3.64 17 5 C17.5259375 4.0409375 17.5259375 4.0409375 18.0625 3.0625 C20.86852351 0.07544271 22.96490047 0.13450332 27 0 C29.33932406 0.64533078 31.67328146 1.31060191 34 2 C36.82144903 1.72265062 36.82144903 1.72265062 39 1 C38.40895235 5.84659077 37.02055843 9.60748167 35 14 C34.34 13.67 33.68 13.34 33 13 C33 11.35 33 9.7 33 8 C30.97646402 6.98823201 29.19636848 6.51679258 27 6 C25.66666667 5.66666667 24.33333333 5.33333333 23 5 C23 5.99 23 6.98 23 8 C25.31 8 27.62 8 30 8 C29.67 9.32 29.34 10.64 29 12 C28.01 12 27.02 12 26 12 C26 12.66 26 13.32 26 14 C23.625 14.125 23.625 14.125 21 14 C20.34 13.34 19.68 12.68 19 12 C18.34 12.66 17.68 13.32 17 14 C16.34 13.34 15.68 12.68 15 12 C14.0925 12.350625 13.185 12.70125 12.25 13.0625 C8.92488606 14.02166748 8.13477632 13.91009635 5 13 C3.33178677 13.32550502 1.66500443 13.65846063 0 14 C-0.99 13.67 -1.98 13.34 -3 13 C-5.33672984 13.3086247 -7.66993089 13.64456573 -10 14 C-13.375 14.125 -13.375 14.125 -16 14 C-17 13 -17 13 -17.09765625 10.27734375 C-17.08605469 9.17519531 -17.07445312 8.07304687 -17.0625 6.9375 C-17.05347656 5.83277344 -17.04445313 4.72804688 -17.03515625 3.58984375 C-17.02355469 2.73519531 -17.01195312 1.88054687 -17 1 C-16.01 1 -15.02 1 -14 1 C-13.67 3.64 -13.34 6.28 -13 9 C-12.855625 7.865625 -12.71125 6.73125 -12.5625 5.5625 C-12 2 -12 2 -11 1 C-7.1638778 0.85524067 -3.67692213 0.82338492 0 2 C0 1.34 0 0.68 0 0 Z M0 4 C-0.6814823 5.89179203 -0.6814823 5.89179203 -1 8 C-0.34 8.66 0.32 9.32 1 10 C1.33 8.35 1.66 6.7 2 5 C1.34 4.67 0.68 4.34 0 4 Z M-8 5 C-6.68 5.33 -5.36 5.66 -4 6 C-4 6.66 -4 7.32 -4 8 C-5.32 8.33 -6.64 8.66 -8 9 C-6.35 9 -4.7 9 -3 9 C-3 7.68 -3 6.36 -3 5 C-4.65 5 -6.3 5 -8 5 Z M8 8 C9 10 9 10 9 10 Z " fill="#6B7831" transform="translate(529,472)"/>
<path d="M0 0 C1.8125 1.4375 1.8125 1.4375 3 3 C3.33 2.34 3.66 1.68 4 1 C4.7425 1.185625 5.485 1.37125 6.25 1.5625 C8.99006016 1.99841866 10.39020109 1.71994453 13 1 C13.66 1.33 14.32 1.66 15 2 C15.33 1.34 15.66 0.68 16 0 C17.32 0 18.64 0 20 0 C20.495 0.99 20.495 0.99 21 2 C21.33 1.67 21.66 1.34 22 1 C24.67058851 0.85884839 27.32432238 0.95752893 30 1 C30.495 1.99 30.495 1.99 31 3 C30.67 3.66 30.34 4.32 30 5 C29.34 5 28.68 5 28 5 C28 7.64 28 10.28 28 13 C27.01 13.33 26.02 13.66 25 14 C25 11.03 25 8.06 25 5 C23.68 5.33 22.36 5.66 21 6 C21.66 6.66 22.32 7.32 23 8 C23 8.99 23 9.98 23 11 C20.0936485 13.80255323 19.21174952 14 15 14 C14.34 13.34 13.68 12.68 13 12 C12.0925 12.350625 11.185 12.70125 10.25 13.0625 C7.02053042 13.99407776 6.03860705 14.04779553 3 13 C1.12488426 13 -0.75041553 13.01786704 -2.625 13.0625 C-5 13 -5 13 -6 12 C-6.04092937 9.66702567 -6.04241723 7.33294775 -6 5 C-6.99 5 -7.98 5 -9 5 C-9 7.97 -9 10.94 -9 14 C-9.99 13.67 -10.98 13.34 -12 13 C-12 10.36 -12 7.72 -12 5 C-12.66 5 -13.32 5 -14 5 C-14.33 4.01 -14.66 3.02 -15 2 C-14 1 -14 1 -12.109375 0.9375 C-11.33078125 0.958125 -10.5521875 0.97875 -9.75 1 C-6.96738518 1.04858534 -4.8520169 0.96461274 -2.125 0.3125 C-1.42375 0.209375 -0.7225 0.10625 0 0 Z M14 7 C13.67 7.66 13.34 8.32 13 9 C14.32 8.67 15.64 8.34 17 8 C16.01 7.67 15.02 7.34 14 7 Z M1 8 C2 10 2 10 2 10 Z " fill="#5B6B2A" transform="translate(691,472)"/>
<path d="M0 0 C3.22111592 -0.38333662 3.22111592 -0.38333662 6 -1 C6 -0.34 6 0.32 6 1 C6.99 1.33 7.98 1.66 9 2 C9 3.32 9 4.64 9 6 C8.01 6.495 8.01 6.495 7 7 C7 7.66 7 8.32 7 9 C7.66 9.66 8.32 10.32 9 11 C6 13 6 13 2 13 C-0.25 12 -0.25 12 -2 11 C-2.99 11.66 -3.98 12.32 -5 13 C-8.1875 12.625 -8.1875 12.625 -11 12 C-11 11.34 -11 10.68 -11 10 C-11.66 9.67 -12.32 9.34 -13 9 C-13 8.34 -13 7.68 -13 7 C-14.32 7 -15.64 7 -17 7 C-17 8.65 -17 10.3 -17 12 C-17.99 12 -18.98 12 -20 12 C-21 11 -21 11 -21.1328125 8.75 C-21.13023437 7.8425 -21.12765625 6.935 -21.125 6 C-21.12757813 5.0925 -21.13015625 4.185 -21.1328125 3.25 C-21 1 -21 1 -20 0 C-18.60495787 -0.04699089 -17.20783231 -0.03739584 -15.8125 0 C-12.96718249 0.04058298 -10.57347321 -0.07382194 -7.75 -0.5625 C-4.80359108 -1.03124687 -2.89560472 -0.57912094 0 0 Z M-9 3 C-9.33 4.65 -9.66 6.3 -10 8 C-8.35 8 -6.7 8 -5 8 C-5 6.68 -5 5.36 -5 4 C-6.32 3.67 -7.64 3.34 -9 3 Z " fill="#526723" transform="translate(745,473)"/>
<path d="M0 0 C3.96 0 7.92 0 12 0 C12.33 0.99 12.66 1.98 13 3 C13.66 3 14.32 3 15 3 C15.33 2.01 15.66 1.02 16 0 C19.3 0 22.6 0 26 0 C26 1.65 26 3.3 26 5 C26.33 5.66 26.66 6.32 27 7 C26.01 7.495 26.01 7.495 25 8 C25.185625 8.639375 25.37125 9.27875 25.5625 9.9375 C25.706875 10.618125 25.85125 11.29875 26 12 C25 13 25 13 22.625 13.0625 C21.75875 13.041875 20.8925 13.02125 20 13 C19.01 13 18.02 13 17 13 C16.34 12.01 15.68 11.02 15 10 C15.33 9.01 15.66 8.02 16 7 C12.9890638 9.0072908 12.36983503 9.83884224 11 13 C10.01 12.34 9.02 11.68 8 11 C7.8125 7.375 7.8125 7.375 8 4 C7.34 4 6.68 4 6 4 C6.04125 5.11375 6.0825 6.2275 6.125 7.375 C6 11 6 11 4 13 C2.19533017 11.19533017 2.58507442 8.26897184 2.37890625 5.8125 C2.25386719 5.214375 2.12882813 4.61625 2 4 C1.34 3.67 0.68 3.34 0 3 C0 2.01 0 1.02 0 0 Z " fill="#646D1E" transform="translate(757,473)"/>
<path d="M0 0 C0.103125 0.639375 0.20625 1.27875 0.3125 1.9375 C0.6528125 2.9584375 0.6528125 2.9584375 1 4 C1.99 4.33 2.98 4.66 4 5 C3.71758359 6.46015291 3.42373386 7.91809793 3.125 9.375 C2.96257813 10.18710937 2.80015625 10.99921875 2.6328125 11.8359375 C2 14 2 14 0 16 C-4.03886871 16.45723042 -6.30770372 16.3912979 -9.875 14.375 C-12.52188711 11.41671441 -13.15901321 9.97533023 -13 6 C-9.44751181 -0.18820523 -6.92358207 -0.70409309 0 0 Z " fill="#A28F65" transform="translate(879,432)"/>
<path d="M0 0 C0.53625 0.515625 1.0725 1.03125 1.625 1.5625 C1.955 0.9025 2.285 0.2425 2.625 -0.4375 C4.935 -0.4375 7.245 -0.4375 9.625 -0.4375 C9.625 2.18363708 9.31207555 4.07185112 8.625 6.5625 C7.965 6.5625 7.305 6.5625 6.625 6.5625 C6.295 8.2125 5.965 9.8625 5.625 11.5625 C2.625 11.5625 2.625 11.5625 0.625 10.5625 C-0.365 11.2225 -1.355 11.8825 -2.375 12.5625 C-5.375 12.5 -5.375 12.5 -8.375 11.5625 C-10.375 9.3125 -10.375 9.3125 -11.375 6.5625 C-10.625 3.875 -10.625 3.875 -9.375 1.5625 C-9.045 0.9025 -8.715 0.2425 -8.375 -0.4375 C-4.87117232 -1.44971688 -3.18602163 -1.92838151 0 0 Z M1.625 2.5625 C2.625 4.5625 2.625 4.5625 2.625 4.5625 Z M-5.375 3.5625 C-5.705 4.8825 -6.035 6.2025 -6.375 7.5625 C-5.055 7.5625 -3.735 7.5625 -2.375 7.5625 C-2.375 6.2425 -2.375 4.9225 -2.375 3.5625 C-3.365 3.5625 -4.355 3.5625 -5.375 3.5625 Z M-7.375 4.5625 C-6.375 6.5625 -6.375 6.5625 -6.375 6.5625 Z M1.625 6.5625 C2.625 8.5625 2.625 8.5625 2.625 8.5625 Z " fill="#5B7228" transform="translate(581.375,473.4375)"/>
<path d="M0 0 C0.6875 2.25 0.6875 2.25 1 5 C-0.3125 7.3125 -0.3125 7.3125 -2 9 C-2.66 9 -3.32 9 -4 9 C-4.33 9.99 -4.66 10.98 -5 12 C-6.47831221 12.19412181 -7.95769316 12.38012131 -9.4375 12.5625 C-10.26121094 12.66691406 -11.08492187 12.77132813 -11.93359375 12.87890625 C-12.61550781 12.91886719 -13.29742188 12.95882813 -14 13 C-15 12 -15 12 -15.09765625 9.27734375 C-15.08605469 8.17519531 -15.07445312 7.07304687 -15.0625 5.9375 C-15.05347656 4.83277344 -15.04445313 3.72804688 -15.03515625 2.58984375 C-15.02355469 1.73519531 -15.01195312 0.88054687 -15 0 C-13.14375 0.0309375 -13.14375 0.0309375 -11.25 0.0625 C-7.17095853 0.07688815 -3.86618566 -1.28872855 0 0 Z M-5 3 C-4 5 -4 5 -4 5 Z " fill="#627A31" transform="translate(813,473)"/>
<path d="M0 0 C1.76636204 2.97492555 1.37893369 5.61800486 1.1875 9 C0.548125 9.12375 -0.09125 9.2475 -0.75 9.375 C-1.430625 9.58125 -2.11125 9.7875 -2.8125 10 C-3.1425 10.66 -3.4725 11.32 -3.8125 12 C-5.1325 11.67 -6.4525 11.34 -7.8125 11 C-7.8125 8.69 -7.8125 6.38 -7.8125 4 C-8.8025 4 -9.7925 4 -10.8125 4 C-10.8125 6.97 -10.8125 9.94 -10.8125 13 C-11.8025 12.67 -12.7925 12.34 -13.8125 12 C-13.8125 9.36 -13.8125 6.72 -13.8125 4 C-14.4725 4 -15.1325 4 -15.8125 4 C-16.1425 3.01 -16.4725 2.02 -16.8125 1 C-15.8125 0 -15.8125 0 -13.921875 -0.0625 C-13.14328125 -0.041875 -12.3646875 -0.02125 -11.5625 0 C-8.77988518 0.04858534 -6.6645169 -0.03538726 -3.9375 -0.6875 C-1.8125 -1 -1.8125 -1 0 0 Z " fill="#778337" transform="translate(692.8125,473)"/>
<path d="M0 0 C0.99 0 1.98 0 3 0 C3.33 2.64 3.66 5.28 4 8 C4.33 5.69 4.66 3.38 5 1 C6.98 1 8.96 1 11 1 C10.67 1.99 10.34 2.98 10 4 C10.99 4.33 11.98 4.66 13 5 C13.3721042 6.32303717 13.70630173 7.65737935 14 9 C14.66 9.33 15.32 9.66 16 10 C15.67 10.66 15.34 11.32 15 12 C10.51876257 12.98142803 5.57248213 13.28578013 1 13 C0 12 0 12 -0.09765625 9.27734375 C-0.08605469 8.17519531 -0.07445312 7.07304687 -0.0625 5.9375 C-0.05347656 4.83277344 -0.04445313 3.72804688 -0.03515625 2.58984375 C-0.02355469 1.73519531 -0.01195312 0.88054687 0 0 Z " fill="#515D24" transform="translate(512,473)"/>
<path d="M0 0 C3.97041037 -0.22057835 5.23312136 0.11656068 9 2 C9 5.3 9 8.6 9 12 C5.62902617 13.49821059 3.79557881 14 0 14 C0 13.34 0 12.68 0 12 C-0.66 12 -1.32 12 -2 12 C-3.76462683 8.91190305 -4 7.76687864 -4 4 C-3.34 4 -2.68 4 -2 4 C-1.34 2.68 -0.68 1.36 0 0 Z M1 5 C1 6.32 1 7.64 1 9 C2.98 9 4.96 9 7 9 C6.34 7.35 5.68 5.7 5 4 C3.63106761 3.94729537 3.63106761 3.94729537 1 5 Z " fill="#577323" transform="translate(598,472)"/>
<path d="M0 0 C0.33 0.66 0.66 1.32 1 2 C1.99 2.33 2.98 2.66 4 3 C4 4.32 4 5.64 4 7 C3.01 7.495 3.01 7.495 2 8 C2 8.66 2 9.32 2 10 C2.66 10.66 3.32 11.32 4 12 C1 14 1 14 -3 14 C-3.66 13.484375 -4.32 12.96875 -5 12.4375 C-6.90083039 10.72256362 -6.90083039 10.72256362 -9.25 11.3125 C-10.11625 11.6528125 -10.11625 11.6528125 -11 12 C-10 9 -10 9 -8 7.625 C-5.47804124 5.5759085 -5.34137286 4.15769893 -5 1 C-3.35 0.67 -1.7 0.34 0 0 Z " fill="#6F7D33" transform="translate(750,472)"/>
<path d="M0 0 C3.398704 0.83789313 5.58882861 1.11364591 8.9375 0 C8.34645235 4.84659077 6.95805843 8.60748167 4.9375 13 C4.2775 12.67 3.6175 12.34 2.9375 12 C2.9375 10.35 2.9375 8.7 2.9375 7 C0.91396402 5.98823201 -0.86613152 5.51679258 -3.0625 5 C-4.39583333 4.66666667 -5.72916667 4.33333333 -7.0625 4 C-7.0625 4.99 -7.0625 5.98 -7.0625 7 C-7.7225 7 -8.3825 7 -9.0625 7 C-9.041875 6.21625 -9.02125 5.4325 -9 4.625 C-8.87565937 2.01885039 -8.87565937 2.01885039 -10.0625 0 C-6.3122101 -0.96608541 -3.74603303 -0.92637602 0 0 Z " fill="#656F2C" transform="translate(559.0625,473)"/>
<path d="M0 0 C1.65 0 3.3 0 5 0 C5.33 0.66 5.66 1.32 6 2 C6.33 1.67 6.66 1.34 7 1 C9.67058851 0.85884839 12.32432238 0.95752893 15 1 C15.33 1.66 15.66 2.32 16 3 C15.67 3.66 15.34 4.32 15 5 C14.34 5 13.68 5 13 5 C13 7.64 13 10.28 13 13 C12.01 13.33 11.02 13.66 10 14 C10 11.03 10 8.06 10 5 C7.36 5 4.72 5 2 5 C1.67 5.99 1.34 6.98 1 8 C0.01 7.01 -0.98 6.02 -2 5 C-1.34 3.35 -0.68 1.7 0 0 Z " fill="#6F7C34" transform="translate(706,472)"/>
<path d="M0 0 C0 0.66 0 1.32 0 2 C0.99 2.33 1.98 2.66 3 3 C3 4.32 3 5.64 3 7 C2.34 7.66 1.68 8.32 1 9 C1.3185177 11.10820797 1.3185177 11.10820797 2 13 C-0.66666667 13 -3.33333333 13 -6 13 C-6 9.04 -6 5.08 -6 1 C-2 0 -2 0 0 0 Z " fill="#60752E" transform="translate(862,472)"/>
<path d="M0 0 C1.32 0.33 2.64 0.66 4 1 C4 1.99 4 2.98 4 4 C4.66 4 5.32 4 6 4 C6 2.68 6 1.36 6 0 C6.99 0 7.98 0 9 0 C9 3.96 9 7.92 9 12 C8.01 12 7.02 12 6 12 C6 10.35 6 8.7 6 7 C5.34 7 4.68 7 4 7 C3.67 8.65 3.34 10.3 3 12 C2.01 12 1.02 12 0 12 C0 8.04 0 4.08 0 0 Z " fill="#5C692A" transform="translate(788,473)"/>
<path d="M0 0 C2.31 0 4.62 0 7 0 C7 2.62113708 6.68707555 4.50935112 6 7 C5.34 7 4.68 7 4 7 C3.67 8.65 3.34 10.3 3 12 C0 12 0 12 -2 11 C-4.09821215 11.39938767 -4.09821215 11.39938767 -6 12 C-5.67 10.35 -5.34 8.7 -5 7 C-4.34 7 -3.68 7 -3 7 C-3 6.34 -3 5.68 -3 5 C-2.01 5 -1.02 5 0 5 C-0.33 4.01 -0.66 3.02 -1 2 C-0.67 1.34 -0.34 0.68 0 0 Z M-1 7 C0 9 0 9 0 9 Z " fill="#6B7830" transform="translate(584,473)"/>
<path d="M0 0 C0.309375 1.11375 0.61875 2.2275 0.9375 3.375 C1.82326483 6.7945155 1.82326483 6.7945155 3 9 C2.01 9.99 1.02 10.98 0 12 C0 11.34 0 10.68 0 10 C-1.98 10 -3.96 10 -6 10 C-6.33 10.66 -6.66 11.32 -7 12 C-8.125 10.3125 -8.125 10.3125 -9 8 C-8.125 5.25 -8.125 5.25 -7 3 C-6.34 3 -5.68 3 -5 3 C-5.33 2.01 -5.66 1.02 -6 0 C-3.50907189 -1.24546405 -2.58919267 -0.7767578 0 0 Z " fill="#62722D" transform="translate(671,474)"/>
<path d="M0 0 C0.99 0 1.98 0 3 0 C6.22265625 5.17578125 6.22265625 5.17578125 7 7 C6.67 7.99 6.34 8.98 6 10 C6.66 10.33 7.32 10.66 8 11 C7.01 11.66 6.02 12.32 5 13 C4.67 12.67 4.34 12.34 4 12 C1.32941149 11.85884839 -1.32432238 11.95752893 -4 12 C-3.53898164 7.29761275 -2.96823597 3.76737643 0 0 Z " fill="#5C6B28" transform="translate(501,473)"/>
<path d="M0 0 C1.65 0 3.3 0 5 0 C5.33 0.66 5.66 1.32 6 2 C5.01 2.33 4.02 2.66 3 3 C3.66 3.33 4.32 3.66 5 4 C4.67 4.66 4.34 5.32 4 6 C2.68 6 1.36 6 0 6 C0.33 6.99 0.66 7.98 1 9 C1.66 9.33 2.32 9.66 3 10 C3.625 12.0625 3.625 12.0625 4 14 C2.68 14 1.36 14 0 14 C-0.33 13.34 -0.66 12.68 -1 12 C-1.99 11.34 -2.98 10.68 -4 10 C-3.67 8.35 -3.34 6.7 -3 5 C-3.763125 4.896875 -4.52625 4.79375 -5.3125 4.6875 C-8.17059424 3.95635961 -9.15742885 3.23048087 -11 1 C-3.57142857 0.85714286 -3.57142857 0.85714286 0 2 C0 1.34 0 0.68 0 0 Z " fill="#61742A" transform="translate(529,472)"/>
<path d="M0 0 C1.5631897 0.00785522 1.5631897 0.00785522 3.15795898 0.01586914 C4.28266602 0.0190918 5.40737305 0.02231445 6.56616211 0.02563477 C7.75016602 0.03401367 8.93416992 0.04239258 10.15405273 0.05102539 C11.34192383 0.05553711 12.52979492 0.06004883 13.75366211 0.06469727 C16.69967499 0.07652864 19.64558954 0.09301252 22.59155273 0.11352539 C22.92155273 0.77352539 23.25155273 1.43352539 23.59155273 2.11352539 C15.34155273 2.11352539 7.09155273 2.11352539 -1.40844727 2.11352539 C-1.40844727 4.09352539 -1.40844727 6.07352539 -1.40844727 8.11352539 C-2.06844727 7.78352539 -2.72844727 7.45352539 -3.40844727 7.11352539 C-3.45099083 5.11397793 -3.44925509 3.11310903 -3.40844727 1.11352539 C-2.40844727 0.11352539 -2.40844727 0.11352539 0 0 Z " fill="#3A4319" transform="translate(580.408447265625,502.886474609375)"/>
<path d="M0 0 C1.134375 0.020625 2.26875 0.04125 3.4375 0.0625 C3.4375 0.7225 3.4375 1.3825 3.4375 2.0625 C2.1175 2.0625 0.7975 2.0625 -0.5625 2.0625 C-0.5625 3.0525 -0.5625 4.0425 -0.5625 5.0625 C0.7575 5.0625 2.0775 5.0625 3.4375 5.0625 C3.4375 5.7225 3.4375 6.3825 3.4375 7.0625 C2.1175 7.0625 0.7975 7.0625 -0.5625 7.0625 C-0.5625 8.7125 -0.5625 10.3625 -0.5625 12.0625 C-1.5525 12.0625 -2.5425 12.0625 -3.5625 12.0625 C-4.5625 11.0625 -4.5625 11.0625 -4.6953125 8.8125 C-4.69273437 7.905 -4.69015625 6.9975 -4.6875 6.0625 C-4.69007813 5.155 -4.69265625 4.2475 -4.6953125 3.3125 C-4.47442744 -0.42955275 -3.90581879 0.06852314 0 0 Z " fill="#5D8F2F" transform="translate(728.5625,472.9375)"/>
<path d="M0 0 C1.65 0 3.3 0 5 0 C6.31626692 3.61973402 7 6.09567131 7 10 C7.66 10.33 8.32 10.66 9 11 C6.33333333 11 3.66666667 11 1 11 C0.34 8.69 -0.32 6.38 -1 4 C0.32 3.34 1.64 2.68 3 2 C2.01 1.67 1.02 1.34 0 1 C0 0.67 0 0.34 0 0 Z " fill="#6F7B32" transform="translate(531,474)"/>
<path d="M0 0 C1.32 0 2.64 0 4 0 C4.33 1.65 4.66 3.3 5 5 C4.01 5.495 4.01 5.495 3 6 C3.2784375 6.9590625 3.2784375 6.9590625 3.5625 7.9375 C3.706875 8.618125 3.85125 9.29875 4 10 C3 11 3 11 0.4375 11.0625 C-0.366875 11.041875 -1.17125 11.02125 -2 11 C-2 10.01 -2 9.02 -2 8 C-2.04125 6.989375 -2.0825 5.97875 -2.125 4.9375 C-2 2 -2 2 0 0 Z " fill="#586627" transform="translate(779,475)"/>
<path d="M0 0 C1.32 0 2.64 0 4 0 C3.34 2.31 2.68 4.62 2 7 C1.34 7 0.68 7 0 7 C0 8.65 0 10.3 0 12 C-0.99 12 -1.98 12 -3 12 C-3.66 9.69 -4.32 7.38 -5 5 C-4.01 5 -3.02 5 -2 5 C-1.7834375 4.0409375 -1.7834375 4.0409375 -1.5625 3.0625 C-1 1 -1 1 0 0 Z " fill="#5E742B" transform="translate(653,473)"/>
<path d="M0 0 C2.64 0.33 5.28 0.66 8 1 C8 3.97 8 6.94 8 10 C7.67 10 7.34 10 7 10 C7 7.69 7 5.38 7 3 C6.01 3 5.02 3 4 3 C4 5.97 4 8.94 4 12 C3.01 11.67 2.02 11.34 1 11 C1 8.36 1 5.72 1 3 C0.34 3 -0.32 3 -1 3 C-0.67 2.01 -0.34 1.02 0 0 Z " fill="#617524" transform="translate(678,474)"/>
<path d="M0 0 C0.66 0 1.32 0 2 0 C2 1.65 2 3.3 2 5 C3.65 5 5.3 5 7 5 C6.67 4.01 6.34 3.02 6 2 C6.66 2 7.32 2 8 2 C8 4.31 8 6.62 8 9 C7.67 8.34 7.34 7.68 7 7 C5.68 7 4.36 7 3 7 C3 7.99 3 8.98 3 10 C4.65 10 6.3 10 8 10 C8 10.33 8 10.66 8 11 C5.36 11 2.72 11 0 11 C0 7.37 0 3.74 0 0 Z " fill="#79833C" transform="translate(798,473)"/>
<path d="M0 0 C3.63 0 7.26 0 11 0 C9.515 1.485 9.515 1.485 8 3 C7.01 3 6.02 3 5 3 C5 6.3 5 9.6 5 13 C4.34 12.67 3.68 12.34 3 12 C2.6088062 9.93734178 2.49325481 7.90556733 2.34375 5.8125 C2.2303125 5.214375 2.116875 4.61625 2 4 C1.34 3.67 0.68 3.34 0 3 C0 2.01 0 1.02 0 0 Z " fill="#717F37" transform="translate(757,473)"/>
<path d="M0 0 C1.875 0.1875 1.875 0.1875 4 1 C6.30238787 4.91405938 6.17461992 8.54719212 6 13 C5.34 12.67 4.68 12.34 4 12 C4 11.34 4 10.68 4 10 C2.68 9.67 1.36 9.34 0 9 C0.66 9 1.32 9 2 9 C1.690625 8.38125 1.38125 7.7625 1.0625 7.125 C0.375 5.75 -0.3125 4.375 -1 3 C-0.67 2.01 -0.34 1.02 0 0 Z " fill="#728135" transform="translate(620,473)"/>
<path d="M0 0 C0.33 0.66 0.66 1.32 1 2 C1.99 2.33 2.98 2.66 4 3 C4 4.32 4 5.64 4 7 C3.01 7.495 3.01 7.495 2 8 C2 8.66 2 9.32 2 10 C2.66 10.66 3.32 11.32 4 12 C3.01 12.66 2.02 13.32 1 14 C0.01 13.34 -0.98 12.68 -2 12 C-1.814375 11.236875 -1.62875 10.47375 -1.4375 9.6875 C-0.77180827 6.91032625 -0.77180827 6.91032625 -2 4 C-1.34 4 -0.68 4 0 4 C0 2.68 0 1.36 0 0 Z " fill="#5A6E26" transform="translate(750,472)"/>
<path d="M0 0 C0.66 0 1.32 0 2 0 C2 3.3 2 6.6 2 10 C-1.37097383 11.49821059 -3.20442119 12 -7 12 C-6.67 10.35 -6.34 8.7 -6 7 C-4.02 7 -2.04 7 0 7 C-0.33 6.01 -0.66 5.02 -1 4 C-0.34 4 0.32 4 1 4 C0.67 2.68 0.34 1.36 0 0 Z " fill="#476318" transform="translate(605,474)"/>
<path d="M0 0 C0.33 1.32 0.66 2.64 1 4 C0.01 4.66 -0.98 5.32 -2 6 C-4.6875 5.125 -4.6875 5.125 -7 4 C-7 4.99 -7 5.98 -7 7 C-7.66 7 -8.32 7 -9 7 C-8.979375 6.21625 -8.95875 5.4325 -8.9375 4.625 C-8.81315937 2.01885039 -8.81315937 2.01885039 -10 0 C-6.30458414 -0.95024979 -3.69541586 -0.95024979 0 0 Z " fill="#4C5B1D" transform="translate(559,473)"/>
<path d="M0 0 C0 0.66 0 1.32 0 2 C0.99 2.33 1.98 2.66 3 3 C2.01 3 1.02 3 0 3 C0 5.64 0 8.28 0 11 C-0.99 11 -1.98 11 -3 11 C-3 8.36 -3 5.72 -3 3 C-3.99 3 -4.98 3 -6 3 C-6 2.34 -6 1.68 -6 1 C-4 0 -4 0 0 0 Z " fill="#61712B" transform="translate(645,474)"/>
<path d="M0 0 C0.99 0 1.98 0 3 0 C3 3.96 3 7.92 3 12 C2.01 12 1.02 12 0 12 C0 10.35 0 8.7 0 7 C-0.66 7 -1.32 7 -2 7 C-2.33 6.01 -2.66 5.02 -3 4 C-2.01 4 -1.02 4 0 4 C0 2.68 0 1.36 0 0 Z " fill="#708039" transform="translate(794,473)"/>
<path d="M0 0 C2.375 0.3125 2.375 0.3125 5 1 C7 4 7 4 7 7 C5.25 8.75 5.25 8.75 3 10 C0.75 9.6875 0.75 9.6875 -1 9 C-0.01 9 0.98 9 2 9 C1.67 8.071875 1.34 7.14375 1 6.1875 C0 3 0 3 0 0 Z " fill="#516722" transform="translate(707,476)"/>
<path d="M0 0 C0.66 0.33 1.32 0.66 2 1 C2.33 1.99 2.66 2.98 3 4 C5.00121175 6.36506843 5.96799661 6.9893322 9 8 C6 10 6 10 2.8125 9.625 C1.4203125 9.315625 1.4203125 9.315625 0 9 C0 8.34 0 7.68 0 7 C-0.66 6.67 -1.32 6.34 -2 6 C-1.34 4.02 -0.68 2.04 0 0 Z " fill="#57702C" transform="translate(734,476)"/>
<path d="M0 0 C1.5 1.0625 1.5 1.0625 3 3 C3.1875 6.6875 3.1875 6.6875 3 10 C1.68 10.33 0.36 10.66 -1 11 C-1.66666667 7.66666667 -2.33333333 4.33333333 -3 1 C-2.01 0.67 -1.02 0.34 0 0 Z " fill="#657E2F" transform="translate(691,472)"/>
<path d="M0 0 C0.99 0 1.98 0 3 0 C3 2.97 3 5.94 3 9 C3.99 9 4.98 9 6 9 C6.33 8.34 6.66 7.68 7 7 C7 7.99 7 8.98 7 10 C4.69 10.33 2.38 10.66 0 11 C0 7.37 0 3.74 0 0 Z " fill="#6F7E33" transform="translate(512,473)"/>
<path d="M0 0 C0.99 0 1.98 0 3 0 C3.66 1.65 4.32 3.3 5 5 C4.01 5.495 4.01 5.495 3 6 C2.34 5.67 1.68 5.34 1 5 C1.33 6.32 1.66 7.64 2 9 C0.68 9.33 -0.64 9.66 -2 10 C-3.03023161 6.72199032 -3.17153978 5.38596452 -1.75 2.1875 C-1.1725 1.465625 -0.595 0.74375 0 0 Z " fill="#748136" transform="translate(501,473)"/>
<path d="M0 0 C0.99 0 1.98 0 3 0 C3.12375 0.78375 3.2475 1.5675 3.375 2.375 C3.79117993 5.14057822 3.79117993 5.14057822 6 7 C3.69 7.66 1.38 8.32 -1 9 C-1.33 7.02 -1.66 5.04 -2 3 C-1.34 3 -0.68 3 0 3 C0 2.01 0 1.02 0 0 Z " fill="#59682A" transform="translate(618,477)"/>
<path d="M0 0 C1.9375 0.3125 1.9375 0.3125 4 1 C4.33 1.99 4.66 2.98 5 4 C4.01 4.33 3.02 4.66 2 5 C2 5.99 2 6.98 2 8 C0.35 7.67 -1.3 7.34 -3 7 C-2.01 4.69 -1.02 2.38 0 0 Z " fill="#555E26" transform="translate(835,476)"/>
<path d="M0 0 C0.99 0.33 1.98 0.66 3 1 C3 4.63 3 8.26 3 12 C2.01 12 1.02 12 0 12 C0 8.04 0 4.08 0 0 Z " fill="#6D7D3A" transform="translate(856,473)"/>
<path d="M0 0 C0.99 0 1.98 0 3 0 C3.6875 2.3125 3.6875 2.3125 4 5 C2.5625 6.8125 2.5625 6.8125 1 8 C1 7.34 1 6.68 1 6 C0.01 6.33 -0.98 6.66 -2 7 C-2.33 6.01 -2.66 5.02 -3 4 C-1.75 1.8125 -1.75 1.8125 0 0 Z " fill="#697B35" transform="translate(541,473)"/>
<path d="M0 0 C2.31 0 4.62 0 7 0 C7.33 0.99 7.66 1.98 8 3 C6.824375 3.0928125 6.824375 3.0928125 5.625 3.1875 C4.75875 3.455625 3.8925 3.72375 3 4 C1.62533375 6.47636012 1.62533375 6.47636012 1 9 C0.67 9 0.34 9 0 9 C0 6.03 0 3.06 0 0 Z " fill="#708238" transform="translate(832,473)"/>
<path d="M0 0 C0.99 0 1.98 0 3 0 C3 3.96 3 7.92 3 12 C2.01 12 1.02 12 0 12 C-0.95465783 9.83032311 -1.14401212 8.43671207 -0.3984375 6.17578125 C0.35870385 4.4315257 1.17609198 2.71372869 2 1 C1.34 0.67 0.68 0.34 0 0 Z " fill="#697731" transform="translate(613,473)"/>
<path d="M0 0 C2.31 0 4.62 0 7 0 C7 0.66 7 1.32 7 2 C5.7934375 2.309375 5.7934375 2.309375 4.5625 2.625 C3.2940625 3.305625 3.2940625 3.305625 2 4 C1.10169161 7.05272465 1.10169161 7.05272465 1 10 C1.99 10.33 2.98 10.66 4 11 C2.68 11 1.36 11 0 11 C0 7.37 0 3.74 0 0 Z " fill="#6F7E34" transform="translate(776,473)"/>
<path d="M0 0 C-0.33 1.32 -0.66 2.64 -1 4 C-1.99 4 -2.98 4 -4 4 C-4 4.66 -4 5.32 -4 6 C-5.65 6 -7.3 6 -9 6 C-8.01 5.67 -7.02 5.34 -6 5 C-6.33 3.68 -6.66 2.36 -7 1 C-2.25 0 -2.25 0 0 0 Z " fill="#49511D" transform="translate(559,480)"/>
<path d="M0 0 C1.65 0.33 3.3 0.66 5 1 C5 2.65 5 4.3 5 6 C2.03 5.505 2.03 5.505 -1 5 C-1.33 4.01 -1.66 3.02 -2 2 C-1.34 2 -0.68 2 0 2 C0 1.34 0 0.68 0 0 Z " fill="#556824" transform="translate(574,480)"/>
<path d="M0 0 C0.33 1.32 0.66 2.64 1 4 C0.34 4 -0.32 4 -1 4 C-1 4.66 -1 5.32 -1 6 C-1.66 6 -2.32 6 -3 6 C-3 5.01 -3 4.02 -3 3 C-3.99 3 -4.98 3 -6 3 C-6 2.34 -6 1.68 -6 1 C-3 0 -3 0 0 0 Z " fill="#618126" transform="translate(582,474)"/>
<path d="M0 0 C0.99 0 1.98 0 3 0 C2.25 2.9375 2.25 2.9375 1 6 C-1.125 6.875 -1.125 6.875 -3 7 C-2.67 5.35 -2.34 3.7 -2 2 C-1.34 2 -0.68 2 0 2 C0 1.34 0 0.68 0 0 Z " fill="#727C2F" transform="translate(581,478)"/>
<path d="M0 0 C6.625 -0.25 6.625 -0.25 10 2 C9.34 2 8.68 2 8 2 C8 2.66 8 3.32 8 4 C4.31245243 3.50168276 2.39509338 2.89932357 0 0 Z " fill="#597E22" transform="translate(518,473)"/>
<path d="M0 0 C6.93 0 13.86 0 21 0 C21 0.33 21 0.66 21 1 C14.07 1 7.14 1 0 1 C0 0.67 0 0.34 0 0 Z " fill="#8C8C67" transform="translate(632,447)"/>
<path d="M0 0 C0.99 0.495 0.99 0.495 2 1 C2.40729228 3.32156597 2.74438677 5.6568787 3 8 C2.01 8 1.02 8 0 8 C0 5.36 0 2.72 0 0 Z " fill="#6D7C38" transform="translate(842,477)"/>
<path d="M0 0 C0.66 0 1.32 0 2 0 C2 0.99 2 1.98 2 3 C3.32 3.66 4.64 4.32 6 5 C6 5.33 6 5.66 6 6 C4.33388095 6.042721 2.66617115 6.04063832 1 6 C0 5 0 5 -0.0625 2.4375 C-0.041875 1.633125 -0.02125 0.82875 0 0 Z " fill="#525B25" transform="translate(848,480)"/>
<path d="M0 0 C0.66 0.33 1.32 0.66 2 1 C2.625 4.0625 2.625 4.0625 3 7 C2.01 7 1.02 7 0 7 C-0.66 5.68 -1.32 4.36 -2 3 C-1.34 2.01 -0.68 1.02 0 0 Z " fill="#707C36" transform="translate(596,477)"/>
<path d="M0 0 C0.66 0 1.32 0 2 0 C2 2.31 2 4.62 2 7 C1.01 7.495 1.01 7.495 0 8 C-0.99 7.34 -1.98 6.68 -3 6 C-2.01 5.67 -1.02 5.34 0 5 C0 3.35 0 1.7 0 0 Z " fill="#77833C" transform="translate(773,473)"/>
<path d="M0 0 C0 0.66 0 1.32 0 2 C0.66 2.33 1.32 2.66 2 3 C1.67 3.66 1.34 4.32 1 5 C-1.0625 5.625 -1.0625 5.625 -3 6 C-3.33 4.35 -3.66 2.7 -4 1 C-2 0 -2 0 0 0 Z " fill="#636D28" transform="translate(862,472)"/>
<path d="M0 0 C1.65 0.33 3.3 0.66 5 1 C5 1.99 5 2.98 5 4 C2.69 3.67 0.38 3.34 -2 3 C-1.34 2.01 -0.68 1.02 0 0 Z " fill="#74842B" transform="translate(601,474)"/>
<path d="M0 0 C1.4540625 0.0309375 1.4540625 0.0309375 2.9375 0.0625 C3.2675 0.7225 3.5975 1.3825 3.9375 2.0625 C3.15375 2.165625 2.37 2.26875 1.5625 2.375 C-1.39295181 2.83845022 -1.39295181 2.83845022 -3.0625 6.0625 C-3.44468767 4.40635343 -3.77645102 2.73792976 -4.0625 1.0625 C-3.0625 0.0625 -3.0625 0.0625 0 0 Z " fill="#75813C" transform="translate(818.0625,472.9375)"/>
<path d="M0 0 C6.27 0 12.54 0 19 0 C19 0.33 19 0.66 19 1 C12.73 1 6.46 1 0 1 C0 0.67 0 0.34 0 0 Z " fill="#8D8D72" transform="translate(844,447)"/>
<path d="M0 0 C6.27 0 12.54 0 19 0 C19 0.33 19 0.66 19 1 C12.73 1 6.46 1 0 1 C0 0.67 0 0.34 0 0 Z " fill="#867972" transform="translate(812,447)"/>
<path d="M0 0 C6.27 0 12.54 0 19 0 C19 0.33 19 0.66 19 1 C12.73 1 6.46 1 0 1 C0 0.67 0 0.34 0 0 Z " fill="#86866B" transform="translate(776,447)"/>
<path d="M0 0 C6.27 0 12.54 0 19 0 C19 0.33 19 0.66 19 1 C12.73 1 6.46 1 0 1 C0 0.67 0 0.34 0 0 Z " fill="#867979" transform="translate(604,447)"/>
<path d="M0 0 C0.66 0.66 1.32 1.32 2 2 C0.35 3.32 -1.3 4.64 -3 6 C-2.42655063 3.13275314 -2.1385485 2.1385485 0 0 Z M-4 6 C-4 6.99 -4 7.98 -4 9 C-4.99 9.495 -4.99 9.495 -6 10 C-5.34 8.68 -4.68 7.36 -4 6 Z " fill="#8F7146" transform="translate(663,386)"/>
<path d="M0 0 C0.5775 0.165 1.155 0.33 1.75 0.5 C4.26664369 1.14462031 4.26664369 1.14462031 8 1 C8 1.66 8 2.32 8 3 C5.36 3.33 2.72 3.66 0 4 C0 2.68 0 1.36 0 0 Z " fill="#515F1D" transform="translate(497,481)"/>
<path d="M0 0 C2.31 0.33 4.62 0.66 7 1 C6.67 1.99 6.34 2.98 6 4 C4.125 3.6875 4.125 3.6875 2 3 C1.34 2.01 0.68 1.02 0 0 Z " fill="#738436" transform="translate(703,481)"/>
<path d="M0 0 C1.32 0 2.64 0 4 0 C3.34 1.65 2.68 3.3 2 5 C1.01 5 0.02 5 -1 5 C-0.67 3.35 -0.34 1.7 0 0 Z " fill="#5A6524" transform="translate(656,482)"/>
<path d="M0 0 C5.94 0 11.88 0 18 0 C18 0.33 18 0.66 18 1 C12.06 1 6.12 1 0 1 C0 0.67 0 0.34 0 0 Z " fill="#808080" transform="translate(741,447)"/>
<path d="M0 0 C5.94 0 11.88 0 18 0 C18 0.33 18 0.66 18 1 C12.06 1 6.12 1 0 1 C0 0.67 0 0.34 0 0 Z " fill="#787878" transform="translate(714,447)"/>
<path d="M0 0 C5.94 0 11.88 0 18 0 C18 0.33 18 0.66 18 1 C12.06 1 6.12 1 0 1 C0 0.67 0 0.34 0 0 Z " fill="#808071" transform="translate(532,447)"/>
<path d="M0 0 C5.94 0 11.88 0 18 0 C18 0.33 18 0.66 18 1 C12.06 1 6.12 1 0 1 C0 0.67 0 0.34 0 0 Z " fill="#808078" transform="translate(488,447)"/>
<path d="M0 0 C0.99 0.33 1.98 0.66 3 1 C2.34 1 1.68 1 1 1 C1 3.64 1 6.28 1 9 C0.01 9.33 -0.98 9.66 -2 10 C-1.34 6.7 -0.68 3.4 0 0 Z " fill="#607329" transform="translate(718,476)"/>
<path d="M0 0 C0.33 1.32 0.66 2.64 1 4 C0.01 4.66 -0.98 5.32 -2 6 C-2.66 4.68 -3.32 3.36 -4 2 C-2.68 1.34 -1.36 0.68 0 0 Z " fill="#52591E" transform="translate(587,480)"/>
<path d="M0 0 C2 2 2 2 3 5 C2.01 5.33 1.02 5.66 0 6 C-0.99 5.34 -1.98 4.68 -3 4 C-3 3.34 -3 2.68 -3 2 C-2.01 1.34 -1.02 0.68 0 0 Z " fill="#4D5622" transform="translate(812,480)"/>
<path d="M0 0 C0.33 0 0.66 0 1 0 C1 5.28 1 10.56 1 16 C0.67 16 0.34 16 0 16 C0 10.72 0 5.44 0 0 Z " fill="#002F00" transform="translate(556,353)"/>
<path d="M0 0 C2.97 0 5.94 0 9 0 C9 0.33 9 0.66 9 1 C6.03 1 3.06 1 0 1 C0 0.67 0 0.34 0 0 Z " fill="#92926D" transform="translate(623,396)"/>
<path d="M0 0 C0.33 0 0.66 0 1 0 C1 2.31 1 4.62 1 7 C0.67 7 0.34 7 0 7 C0 4.69 0 2.38 0 0 Z " fill="#246D00" transform="translate(607,541)"/>
<path d="M0 0 C4 1 4 1 4 1 Z " fill="#9F9F40" transform="translate(682,396)"/>
<path d="M0 0 C1 4 1 4 1 4 Z " fill="#209F00" transform="translate(728,246)"/>
<path d="" fill="#2A7F00" transform="translate(0,0)"/>
<path d="" fill="#00FF00" transform="translate(0,0)"/>
<path d="" fill="#007F00" transform="translate(0,0)"/>
<path d="" fill="#2AD400" transform="translate(0,0)"/>
<path d="" fill="#000000" transform="translate(0,0)"/>
<path d="" fill="#404000" transform="translate(0,0)"/>
<path d="M0 0 C2 1 2 1 2 1 Z " fill="#007F00" transform="translate(657,480)"/>
<path d="" fill="#7F7F00" transform="translate(0,0)"/>
<path d="" fill="#7F7F00" transform="translate(0,0)"/>
<path d="" fill="#000000" transform="translate(0,0)"/>
<path d="" fill="#000000" transform="translate(0,0)"/>
<path d="" fill="#000000" transform="translate(0,0)"/>
<path d="" fill="#000000" transform="translate(0,0)"/>
<path d="M0 0 C2 1 2 1 2 1 Z " fill="#000000" transform="translate(677,310)"/>
<path d="" fill="#000000" transform="translate(0,0)"/>
<path d="" fill="#000000" transform="translate(0,0)"/>
<path d="" fill="#808000" transform="translate(0,0)"/>
<path d="" fill="#000000" transform="translate(0,0)"/>
<path d="" fill="#000000" transform="translate(0,0)"/>
<path d="" fill="#000000" transform="translate(0,0)"/>
<path d="" fill="#000000" transform="translate(0,0)"/>
<path d="" fill="#000000" transform="translate(0,0)"/>
<path d="" fill="#000000" transform="translate(0,0)"/>
<path d="" fill="#000000" transform="translate(0,0)"/>
<path d="" fill="#000000" transform="translate(0,0)"/>
<path d="" fill="#000000" transform="translate(0,0)"/>
<path d="" fill="#00FF00" transform="translate(0,0)"/>
<path d="" fill="#000000" transform="translate(0,0)"/>
<path d="" fill="#FFFF00" transform="translate(0,0)"/>
<path d="" fill="#000000" transform="translate(0,0)"/>
<path d="" fill="#000000" transform="translate(0,0)"/>
<path d="" fill="#000000" transform="translate(0,0)"/>
<path d="" fill="#FF0000" transform="translate(0,0)"/>
<path d="" fill="#000000" transform="translate(0,0)"/>
<path d="" fill="#000000" transform="translate(0,0)"/>
<path d="" fill="#FFFF00" transform="translate(0,0)"/>
<path d="" fill="#000000" transform="translate(0,0)"/>
<path d="" fill="#000000" transform="translate(0,0)"/>
<path d="" fill="#000000" transform="translate(0,0)"/>
<path d="" fill="#000000" transform="translate(0,0)"/>
<path d="" fill="#000000" transform="translate(0,0)"/>
<path d="" fill="#000000" transform="translate(0,0)"/>
<path d="" fill="#000000" transform="translate(0,0)"/>
<path d="" fill="#FFFF00" transform="translate(0,0)"/>
<path d="" fill="#000000" transform="translate(0,0)"/>
<path d="" fill="#000000" transform="translate(0,0)"/>
<path d="" fill="#000000" transform="translate(0,0)"/>
<path d="" fill="#000000" transform="translate(0,0)"/>
<path d="" fill="#00FF00" transform="translate(0,0)"/>
<path d="" fill="#000000" transform="translate(0,0)"/>
<path d="" fill="#000000" transform="translate(0,0)"/>
<path d="" fill="#000000" transform="translate(0,0)"/>
<path d="" fill="#000000" transform="translate(0,0)"/>
<path d="" fill="#000000" transform="translate(0,0)"/>
<path d="" fill="#00FF00" transform="translate(0,0)"/>
<path d="" fill="#000000" transform="translate(0,0)"/>
<path d="" fill="#000000" transform="translate(0,0)"/>
<path d="" fill="#000000" transform="translate(0,0)"/>
<path d="" fill="#808000" transform="translate(0,0)"/>
<path d="" fill="#000000" transform="translate(0,0)"/>
<path d="" fill="#000000" transform="translate(0,0)"/>
</svg>
