<?xml version="1.0" encoding="UTF-8"?>
<svg version="1.1" xmlns="http://www.w3.org/2000/svg" width="1366" height="768">
<path d="M0 0 C9.57 0 19.14 0 29 0 C32.59419726 7.18839451 36.11103539 14.27964764 39.3046875 21.6328125 C39.67353058 22.47673553 40.04237366 23.32065857 40.4223938 24.19015503 C41.18846582 25.94541003 41.95293865 27.70136385 42.71582031 29.45800781 C43.88872453 32.15657683 45.06908018 34.85180552 46.25 37.546875 C46.99783985 39.26282739 47.74525196 40.97896628 48.4921875 42.6953125 C48.84521942 43.50042267 49.19825134 44.30553284 49.5619812 45.13504028 C52 50.77025764 52 50.77025764 52 53 C52.66 53 53.32 53 54 53 C54.16829819 52.4633371 54.33659637 51.92667419 54.50999451 51.37374878 C56.40106523 45.50657153 58.66779087 39.89263459 61.16015625 34.2578125 C61.55069687 33.36762421 61.94123749 32.47743591 62.34361267 31.56027222 C63.16278029 29.69558547 63.98389645 27.83175361 64.80688477 25.96875 C66.06724605 23.11425102 67.32017856 20.25657407 68.57226562 17.3984375 C69.37195968 15.58053724 70.17207493 13.76282219 70.97265625 11.9453125 C71.34665054 11.0922049 71.72064484 10.23909729 72.10597229 9.36013794 C72.63178139 8.17277542 72.63178139 8.17277542 73.16821289 6.96142578 C73.62763023 5.91959641 73.62763023 5.91959641 74.09632874 4.85671997 C75 3 75 3 77 0 C79.88916016 -0.34057617 79.88916016 -0.34057617 83.5390625 -0.29296875 C85.49199219 -0.2784668 85.49199219 -0.2784668 87.484375 -0.26367188 C88.86458923 -0.23860388 90.24479756 -0.21320902 91.625 -0.1875 C93.01300663 -0.17245517 94.40102867 -0.15876641 95.7890625 -0.14648438 C99.19309509 -0.1110257 102.59635622 -0.06160298 106 0 C105.68209 0.74013588 105.68209 0.74013588 105.35775757 1.495224 C102.00399901 10.65246812 102.56567084 20.08287733 102.6015625 29.69140625 C102.59953813 31.60611583 102.59662367 33.52082466 102.59286499 35.43553162 C102.58845981 39.43390294 102.59481497 43.43207222 102.60888672 47.43041992 C102.62598909 52.53669829 102.61611919 57.64250387 102.59816933 62.74876499 C102.58729247 66.69776426 102.5907955 70.64665271 102.5985527 74.59565544 C102.60054333 76.47778315 102.59813575 78.35992116 102.59111404 80.24203682 C102.58343365 82.87850465 102.59519454 85.51422233 102.61181641 88.15063477 C102.60574371 88.91608109 102.59967102 89.6815274 102.59341431 90.47016907 C102.66368944 96.53407611 103.93107828 99.79323484 106 106 C95.11 106 84.22 106 73 106 C73.66 104.35 74.32 102.7 75 101 C76.24536281 95.61865713 76.12808195 90.28011544 76.09765625 84.7890625 C76.0962413 83.82092621 76.09482635 82.85278992 76.09336853 81.85531616 C76.08779365 78.77851201 76.07524577 75.70178197 76.0625 72.625 C76.05748175 70.53255314 76.05291941 68.44010513 76.04882812 66.34765625 C76.03783245 61.2317425 76.02058515 56.11588379 76 51 C73.66992802 56.4766485 71.34044431 61.95354672 69.01147461 67.43066406 C68.22126652 69.28880354 67.43090558 71.14687802 66.64038086 73.00488281 C62.39252927 82.98908048 58.14680118 92.97329045 54 103 C53.34 103 52.68 103 52 103 C51.65294258 102.17767128 51.65294258 102.17767128 51.2988739 101.33872986 C48.88185339 95.61187144 46.46456315 89.88512693 44.04711914 84.15844727 C43.14600882 82.02371062 42.24496634 79.88894533 41.34399414 77.75415039 C40.04591596 74.67847204 38.74759058 71.60289814 37.44921875 68.52734375 C37.0491008 67.57915268 36.64898285 66.63096161 36.23674011 65.65403748 C34.17176984 60.76327523 32.09691296 55.87715561 30 51 C29.92352405 57.38623323 29.87122238 63.77234702 29.83520508 70.15893555 C29.82017964 72.3285768 29.79975347 74.49818798 29.77368164 76.66772461 C29.73702294 79.7980901 29.72021074 82.9280517 29.70703125 86.05859375 C29.69154739 87.01833603 29.67606354 87.97807831 29.66011047 88.96690369 C29.65988388 89.8871785 29.65965729 90.80745331 29.65942383 91.75561523 C29.65276199 92.55281479 29.64610016 93.35001434 29.63923645 94.17137146 C30.15781391 98.23736705 31.70380392 102.11141176 33 106 C22.11 106 11.22 106 0 106 C0.66 104.35 1.32 102.7 2 101 C2.86354118 95.65348958 3.14880664 90.42959698 3.14526367 85.0144043 C3.14862228 84.26037323 3.1519809 83.50634216 3.15544128 82.72946167 C3.16486356 80.26103015 3.16688996 77.79266709 3.16796875 75.32421875 C3.17118737 73.59080478 3.17455188 71.85739108 3.17805481 70.12397766 C3.18402427 66.49874238 3.18589696 62.87353086 3.18530273 59.24829102 C3.18520123 54.62876739 3.19885091 50.00939787 3.21607494 45.3899107 C3.22725484 41.81144018 3.22922011 38.23300622 3.22869301 34.65452003 C3.22986421 32.9526701 3.23423701 31.25081895 3.24202538 29.54898643 C3.28384085 19.46872424 3.22290682 9.66872047 0 0 Z " fill="#B8A274" transform="translate(485,292)"/>
<path d="M0 0 C2.6875 2.4375 2.6875 2.4375 3.6875 4.4375 C3.79460707 7.26830701 3.84167073 10.07554734 3.84521484 12.90698242 C3.85029556 13.78360535 3.85537628 14.66022827 3.86061096 15.56341553 C3.87132815 17.4715442 3.87994302 19.37968556 3.88673019 21.28783226 C3.89850473 24.31022611 3.91795542 27.33247613 3.93984985 30.35481262 C4.00150356 38.94979039 4.05546012 47.54475502 4.08886719 56.13989258 C4.10984131 61.39428897 4.1451712 66.64842584 4.18962479 71.90267372 C4.20376808 73.90364839 4.21250344 75.90466901 4.21567917 77.90569115 C4.22060124 80.71108402 4.24379424 83.51579182 4.27099609 86.32104492 C4.26798996 87.14365311 4.26498383 87.96626129 4.2618866 88.813797 C4.27297958 89.58621735 4.28407257 90.3586377 4.29550171 91.15446472 C4.30046693 92.14748738 4.30046693 92.14748738 4.30553246 93.1605711 C4.74592051 96.33562502 4.74592051 96.33562502 7.6875 102.4375 C-3.5325 102.4375 -14.7525 102.4375 -26.3125 102.4375 C-25.3225 100.1275 -24.3325 97.8175 -23.3125 95.4375 C-22.82389106 92.45985267 -22.82389106 92.45985267 -22.80078125 89.50390625 C-22.75111206 88.06833374 -22.75111206 88.06833374 -22.70043945 86.60375977 C-22.67554443 85.41451904 -22.65064941 84.22527832 -22.625 83 C-22.521875 79.184375 -22.41875 75.36875 -22.3125 71.4375 C-31.5525 71.4375 -40.7925 71.4375 -50.3125 71.4375 C-46.65785261 84.88525711 -46.65785261 84.88525711 -40.546875 97.3359375 C-39.3125 99.4375 -39.3125 99.4375 -38.3125 102.4375 C-48.5425 102.4375 -58.7725 102.4375 -69.3125 102.4375 C-70.09625 100.045 -70.88 97.6525 -71.6875 95.1875 C-71.93032715 94.46143555 -72.1731543 93.73537109 -72.42333984 92.98730469 C-78.31096335 74.56273185 -80.25478604 49.43673647 -72.3125 31.4375 C-71.86519531 30.39078125 -71.41789063 29.3440625 -70.95703125 28.265625 C-64.17081455 13.6379622 -54.27905552 3.55765282 -39.3125 -2.5625 C-26.92347506 -6.68700643 -11.30575464 -7.879062 0 0 Z M-40 25.5625 C-46.66517377 32.69940982 -48.40136867 39.88184333 -50.3125 49.4375 C-41.0725 49.4375 -31.8325 49.4375 -22.3125 49.4375 C-22.3125 39.2075 -22.3125 28.9775 -22.3125 18.4375 C-29.99269451 18.4375 -34.37962511 20.39419874 -40 25.5625 Z " fill="#B8A174" transform="translate(883.3125,295.5625)"/>
<path d="M0 0 C7.47058325 -0.10210839 14.94098399 -0.17176094 22.41210938 -0.21972656 C24.94928716 -0.23973992 27.48641942 -0.26695917 30.0234375 -0.30175781 C33.68761486 -0.35072874 37.35117805 -0.37307263 41.015625 -0.390625 C42.13487366 -0.41127014 43.25412231 -0.43191528 44.4072876 -0.45318604 C55.77872143 -0.4563665 65.22298097 2.37339365 73.87109375 9.85546875 C80.76557942 16.80055614 83.27267054 24.61276914 83.375 34.375 C83.21171231 44.12423543 80.45864564 50.17197534 73.87109375 57.26953125 C70.37213099 60.50552395 66.90726935 63 62 63 C69.95779 85.84638631 69.95779 85.84638631 83 106 C70.79 106 58.58 106 46 106 C46 103.03 46 100.06 46 97 C45.46836469 94.28651982 45.46836469 94.28651982 44.53125 91.93920898 C44.21091797 91.05897568 43.89058594 90.17874237 43.56054688 89.27183533 C43.21056641 88.35584061 42.86058594 87.43984589 42.5 86.49609375 C42.14486328 85.5322023 41.78972656 84.56831085 41.42382812 83.57521057 C40.29612748 80.52406127 39.14846567 77.48088586 38 74.4375 C37.2278313 72.35921961 36.45698418 70.2804477 35.6875 68.20117188 C33.80691544 63.12832912 31.90992386 58.06186436 30 53 C29.95027534 58.81663796 29.91412748 64.63315004 29.89013672 70.44995117 C29.8801271 72.42555906 29.86651531 74.40115231 29.84912109 76.37670898 C29.82464991 79.22904082 29.81346624 82.08117547 29.8046875 84.93359375 C29.79436493 85.80584091 29.78404236 86.67808807 29.77340698 87.57676697 C29.77228189 93.83444415 30.1559186 100.3118372 33 106 C22.11 106 11.22 106 0 106 C0.99 103.03 1.98 100.06 3 97 C3.26685333 93.97537365 3.41210297 91.16560633 3.38818359 88.15063477 C3.39344055 87.31682281 3.39869751 86.48301086 3.40411377 85.62393188 C3.41720472 82.89622681 3.40861391 80.16911618 3.3984375 77.44140625 C3.40046156 75.52766306 3.40337576 73.61392062 3.40713501 71.70018005 C3.41154377 67.70002865 3.4051748 63.70007901 3.39111328 59.69995117 C3.37403397 54.59486327 3.38386394 49.49024907 3.40183067 44.38517857 C3.41271765 40.43613678 3.40919951 36.48720561 3.4014473 32.53816032 C3.39945825 30.65685913 3.4018586 28.77554762 3.40888596 26.8942585 C3.58962294 13.15668561 3.58962294 13.15668561 0 0 Z M29 22 C29 30.25 29 38.5 29 47 C31.495625 47.04125 33.99125 47.0825 36.5625 47.125 C37.33408447 47.14320801 38.10566895 47.16141602 38.90063477 47.18017578 C44.84184792 47.22711795 49.93338048 46.48257487 54.875 42.9375 C57.69403628 39.04059691 58.43878652 35.78446068 58 31 C55.99227637 26.98455274 53.79019591 24.36865894 50 22 C47.58964638 21.59068134 47.58964638 21.59068134 45.015625 21.70703125 C43.75153809 21.71827026 43.75153809 21.71827026 42.46191406 21.72973633 C40.8720166 21.77070435 40.8720166 21.77070435 39.25 21.8125 C35.8675 21.874375 32.485 21.93625 29 22 Z " fill="#B8A274" transform="translate(631,292)"/>
<path d="M0 0 C10.89 0 21.78 0 33 0 C32.34 1.98 31.68 3.96 31 6 C30.7721343 8.84849575 30.6294505 11.61127257 30.5859375 14.4609375 C30.56657135 15.25150543 30.5472052 16.04207336 30.5272522 16.8565979 C30.46783947 19.36262483 30.42122573 21.86869865 30.375 24.375 C30.33678487 26.08205043 30.29773111 27.78908231 30.2578125 29.49609375 C30.16060275 33.66396173 30.08073256 37.8316505 30 42 C38.91 42 47.82 42 57 42 C56.90271034 37.14319781 56.79976303 32.28717948 56.68261719 27.4309082 C56.64449701 25.78124135 56.6096155 24.13149618 56.578125 22.48168945 C56.5321034 20.10079079 56.47417365 17.72042348 56.4140625 15.33984375 C56.40251129 14.61039047 56.39096008 13.88093719 56.37905884 13.12937927 C56.35918915 12.42918167 56.33931946 11.72898407 56.31884766 11.00756836 C56.30552399 10.4013414 56.29220032 9.79511444 56.2784729 9.17051697 C55.87764841 6.04634814 54.86531011 3.0285854 54 0 C64.89 0 75.78 0 87 0 C86.01 2.64 85.02 5.28 84 8 C83.57150525 10.30993937 83.57150525 10.30993937 83.61904907 12.36964417 C83.6105896 13.13621338 83.60213013 13.90278259 83.59341431 14.69258118 C83.599487 15.50373886 83.60555969 16.31489655 83.61181641 17.15063477 C83.60655945 18.02813385 83.60130249 18.90563293 83.59588623 19.8097229 C83.58276869 22.68713605 83.59139419 25.56398826 83.6015625 28.44140625 C83.59953958 30.45344651 83.59662632 32.46548605 83.59286499 34.4775238 C83.58845296 38.68455011 83.59483726 42.89138473 83.60888672 47.09838867 C83.62598887 52.48067998 83.61612366 57.86252278 83.59816933 63.24479771 C83.58731063 67.39616758 83.59078723 71.54743173 83.5985527 75.69880486 C83.60054836 77.68306469 83.59811779 79.66733424 83.59111404 81.65158272 C83.583464 84.42756589 83.59515297 87.20282992 83.61181641 89.97875977 C83.60574371 90.79194168 83.59967102 91.6051236 83.59341431 92.44294739 C83.60187378 93.20669678 83.61033325 93.97044617 83.61904907 94.75733948 C83.62018015 95.41156167 83.62131123 96.06578386 83.62247658 96.73983097 C84.05867431 99.90091689 84.05867431 99.90091689 87 106 C76.11 106 65.22 106 54 106 C54.66 104.02 55.32 102.04 56 100 C56.31381418 97.86789089 56.31381418 97.86789089 56.31884766 95.83056641 C56.33871735 95.07023102 56.35858704 94.30989563 56.37905884 93.52651978 C56.39061005 92.72628387 56.40216125 91.92604797 56.4140625 91.1015625 C56.43342865 90.26660248 56.4527948 89.43164246 56.4727478 88.57138062 C56.53219614 85.92268874 56.57878894 83.27395257 56.625 80.625 C56.66321182 78.82159636 56.70226539 77.01821034 56.7421875 75.21484375 C56.83944275 70.80999117 56.91928553 66.40531055 57 62 C48.09 62 39.18 62 30 62 C30.0971498 67.30233395 30.20001318 72.60392521 30.31738281 77.90576172 C30.35556522 79.70777715 30.39043651 81.50986601 30.421875 83.31201172 C30.46775963 85.90879481 30.52571435 88.5050771 30.5859375 91.1015625 C30.59748871 91.9017984 30.60903992 92.7020343 30.62094116 93.52651978 C30.64081085 94.28685516 30.66068054 95.04719055 30.68115234 95.83056641 C30.69447601 96.49230865 30.70779968 97.1540509 30.7215271 97.83584595 C31.01952509 100.700469 31.01952509 100.700469 33 106 C22.11 106 11.22 106 0 106 C0.99 103.36 1.98 100.72 3 98 C3.4281928 95.70982882 3.4281928 95.70982882 3.38095093 93.67504883 C3.3894104 92.91833893 3.39786987 92.16162903 3.40658569 91.38198853 C3.400513 90.58175262 3.39444031 89.78151672 3.38818359 88.95703125 C3.39344055 88.09089203 3.39869751 87.22475281 3.40411377 86.33236694 C3.41723069 83.49222345 3.40860528 80.65264839 3.3984375 77.8125 C3.40046062 75.82527561 3.40337405 73.83805194 3.40713501 71.85083008 C3.41154712 67.69507752 3.40516318 63.53951899 3.39111328 59.38378906 C3.37402216 54.07109632 3.38386931 48.75885833 3.40183067 43.44618225 C3.41269859 39.34538377 3.40920837 35.24469217 3.4014473 31.14389038 C3.39945361 29.18557684 3.4018752 27.22725342 3.40888596 25.26895142 C3.41655005 22.52669769 3.40482714 19.78516883 3.38818359 17.04296875 C3.39729263 15.8426149 3.39729263 15.8426149 3.40658569 14.61801147 C3.39812622 13.86130157 3.38966675 13.10459167 3.38095093 12.32495117 C3.37981985 11.67902512 3.37868877 11.03309906 3.37752342 10.36759949 C2.80519709 6.77831348 1.27620361 3.40320964 0 0 Z " fill="#B8A274" transform="translate(976,292)"/>
<path d="M0 0 C13.41091394 -0.52250314 27.09697907 3.44979354 37.53125 12.03125 C38.27375 12.7325 39.01625 13.43375 39.78125 14.15625 C36.09656298 21.03320043 32.02583901 27.61199894 27.78125 34.15625 C24.60336798 32.97340197 21.96684702 31.69221565 19.21875 29.71875 C12.33657398 25.37211251 4.85922952 23.51082783 -3.21875 24.71875 C-6.27987058 25.45306505 -8.26555557 26.1849716 -10.96875 27.84375 C-12.48067462 30.23189885 -12.48067462 30.23189885 -12.34375 33.65625 C-11.1713715 37.30364978 -10.3794333 38.2125935 -7.21630859 40.17431641 C-3.01558412 42.23925332 1.53541295 43.34683509 6.03125 44.59375 C18.91820936 48.17346093 29.84539534 51.9587125 36.78125 64.15625 C40.18432996 74.36548989 39.53138382 83.46179451 34.78125 93.15625 C29.73641852 101.72578163 19.91773166 106.60501805 10.59375 109.09375 C-4.9784294 112.04837592 -20.62928363 110.81265717 -34.34375 102.28125 C-38.05169553 99.51455218 -42.04049791 96.30439963 -44.21875 92.15625 C-44.04924874 88.03469306 -41.11643189 84.87945881 -38.78125 81.65625 C-35.141599 76.62389995 -35.141599 76.62389995 -32.21875 71.15625 C-31.55875 71.15625 -30.89875 71.15625 -30.21875 71.15625 C-29.33710141 72.32979576 -28.51365573 73.5472975 -27.71875 74.78125 C-23.08454726 81.1561045 -16.04869145 85.43485697 -8.29296875 86.9765625 C-3.01966988 87.43338312 1.88222176 86.85385221 6.84375 85.03125 C9.06522608 83.17022355 9.06522608 83.17022355 9.90625 79.78125 C10.14313136 76.07285304 10.14313136 76.07285304 7.68994141 73.5793457 C4.4954512 70.91816429 2.08726439 69.93102572 -1.8828125 68.76171875 C-3.18365765 68.35893028 -4.48443675 67.95592842 -5.78515625 67.55273438 C-7.80361239 66.9476845 -9.82387024 66.34956947 -11.84619141 65.75756836 C-22.66831135 62.5551043 -33.26383636 58.63273599 -39.34375 48.46875 C-42.85477784 41.45950828 -43.49205122 32.98649048 -41.5 25.4296875 C-37.69726064 15.2788268 -31.67400785 10.16340454 -22.21875 5.15625 C-14.83855733 2.07032561 -7.93253408 0.55862916 0 0 Z " fill="#B8A274" transform="translate(762.21875,289.84375)"/>
<path d="M0 0 C5.26860055 3.7663771 10.05948329 7.92048324 14.3125 12.8125 C14.8796875 13.41320312 15.446875 14.01390625 16.03125 14.6328125 C20.929678 22.96611379 14.90271115 41.52126632 13.3125 50.8125 C12.29414063 50.83828125 11.27578125 50.8640625 10.2265625 50.890625 C-7.10367583 51.51148379 -24.40492084 54.27059633 -38.6875 64.8125 C-39.5125 65.34875 -40.3375 65.885 -41.1875 66.4375 C-46.46643969 71.4524927 -50.30846777 78.03107525 -50.88842773 85.34716797 C-51.07346056 97.97540845 -49.27849327 110.42595178 -47.75 122.9375 C-47.33009921 126.42884804 -46.91255569 129.92046315 -46.49693298 133.412323 C-46.23943778 135.56984289 -45.97919624 137.72703764 -45.71559143 139.88381958 C-44.60183401 149.11481824 -43.54234727 158.3625645 -43.58984375 167.671875 C-43.59306641 168.80625 -43.59628906 169.940625 -43.59960938 171.109375 C-43.60798828 172.24890625 -43.61636719 173.3884375 -43.625 174.5625 C-43.62951172 175.7484375 -43.63402344 176.934375 -43.63867188 178.15625 C-43.65030684 181.04172228 -43.6666516 183.92708213 -43.6875 186.8125 C-46.6575 187.8025 -49.6275 188.7925 -52.6875 189.8125 C-52.91679199 188.31340088 -53.14608398 186.81430176 -53.38232422 185.26977539 C-55.18934813 173.47849822 -57.01524121 161.69047185 -58.87418365 149.90726852 C-59.19748544 147.85731584 -59.52030471 145.80728775 -59.84295654 143.75723267 C-59.95055676 143.07359461 -60.05815697 142.38995655 -60.16901779 141.68560219 C-60.38719221 140.29936215 -60.60535474 138.91312023 -60.8235054 137.52687645 C-61.37540248 134.02116788 -61.92851405 130.5156578 -62.48388672 127.01049805 C-72.4119955 64.3233691 -72.4119955 64.3233691 -59 44.5625 C-57.8553125 43.20125 -57.8553125 43.20125 -56.6875 41.8125 C-56.0275 41.8125 -55.3675 41.8125 -54.6875 41.8125 C-54.6875 41.1525 -54.6875 40.4925 -54.6875 39.8125 C-42.31118286 30.25967727 -28.94716265 27.04625996 -13.6875 25.8125 C-15.10078129 24.99412558 -16.51828346 24.18303781 -17.9375 23.375 C-18.72640625 22.92253906 -19.5153125 22.47007812 -20.328125 22.00390625 C-28.39365677 17.93107978 -38.32889965 19.24062297 -46.6875 21.8125 C-46.17025689 12.84695281 -43.51990524 3.89973105 -36.75 -2.3125 C-25.39572555 -11.01885597 -11.05531095 -7.61431743 0 0 Z " fill="#B6C58C" transform="translate(440.6875,285.1875)"/>
<path d="M0 0 C26.4 0 52.8 0 80 0 C80 9.24 80 18.48 80 28 C76.04 26.35 72.08 24.7 68 23 C64.90519851 22.53163957 62.31190543 22.21430657 59.25 22.1875 C58.54101562 22.16236328 57.83203125 22.13722656 57.1015625 22.11132812 C55.40160665 22.05389718 53.70075999 22.02374157 52 22 C52.08470839 31.08468508 52.17970748 40.16918931 52.28752708 49.25362968 C52.33728573 53.47276453 52.38361604 57.69187678 52.421875 61.91113281 C52.45898785 65.98964724 52.50541496 70.06796268 52.55806351 74.14630508 C52.57647036 75.69543053 52.5916278 77.24459841 52.60334396 78.79378891 C52.67657801 88.14998252 53.01365772 97.04097317 56 106 C45.11 106 34.22 106 23 106 C23.99 103.03 24.98 100.06 26 97 C26.46007216 93.06923224 26.46007216 93.06923224 26.43237305 89.09350586 C26.4425647 88.36067383 26.45275635 87.6278418 26.46325684 86.87280273 C26.49308874 84.48673564 26.5026063 82.10107184 26.51171875 79.71484375 C26.52858766 78.0461751 26.54674085 76.37751899 26.56611633 74.70887756 C26.61338254 70.34424762 26.64334245 65.97966853 26.66955566 61.61486816 C26.69947994 57.15004439 26.74596915 52.68539541 26.79101562 48.22070312 C26.87678235 39.48055512 26.9442452 30.74039077 27 22 C24.59709162 22.1296987 22.19511861 22.26757434 19.79296875 22.41015625 C18.7787384 22.4636322 18.7787384 22.4636322 17.74401855 22.51818848 C10.85049692 22.93998386 6.14465908 24.92767046 0 28 C0 18.76 0 9.52 0 0 Z " fill="#B7A174" transform="translate(893,292)"/>
<path d="M0 0 C10.56 0 21.12 0 32 0 C31.34 2.31 30.68 4.62 30 7 C29.70954808 9.22918588 29.70954808 9.22918588 29.73930359 11.28735352 C29.72867638 12.44776657 29.72867638 12.44776657 29.71783447 13.63162231 C29.72031189 14.45572601 29.72278931 15.27982971 29.7253418 16.12890625 C29.72023087 17.01601288 29.71511993 17.90311951 29.70985413 18.81710815 C29.69602069 21.73230851 29.69690991 24.64727085 29.69921875 27.5625 C29.69532895 29.59838956 29.6909937 31.63427831 29.68623352 33.67016602 C29.67878517 37.93020259 29.67905297 42.19015626 29.68432617 46.45019531 C29.69012498 51.90087339 29.67317302 57.35121213 29.6499815 62.80183411 C29.63523024 67.00380425 29.63437426 71.20569287 29.63749123 75.40768433 C29.63697892 77.41707024 29.63175817 79.42646083 29.62167931 81.43582153 C29.60930258 84.24780183 29.61611359 87.0591235 29.62768555 89.87109375 C29.62004181 90.69519745 29.61239807 91.51930115 29.60452271 92.36837769 C29.61504417 93.52879074 29.61504417 93.52879074 29.6257782 94.71264648 C29.62552659 95.70698952 29.62552659 95.70698952 29.62526989 96.72142029 C30.05437299 99.89872472 30.05437299 99.89872472 33 106 C22.11 106 11.22 106 0 106 C0.66 103.69 1.32 101.38 2 99 C2.28800426 96.77072093 2.28800426 96.77072093 2.25396729 94.71264648 C2.25960693 93.93903778 2.26524658 93.16542908 2.27105713 92.36837769 C2.26700867 91.54427399 2.26296021 90.72017029 2.25878906 89.87109375 C2.2622937 88.98398712 2.26579834 88.09688049 2.26940918 87.18289185 C2.27816934 84.26768024 2.27239756 81.35271382 2.265625 78.4375 C2.26697329 76.40161086 2.26891519 74.36572203 2.27142334 72.32983398 C2.27436686 68.06979293 2.27010176 63.80983594 2.26074219 59.54980469 C2.24934817 54.09919035 2.25591176 48.64877301 2.26788712 43.19816589 C2.27512653 38.99620082 2.27280821 34.79428217 2.26763153 30.59231567 C2.2663008 28.58293637 2.2679225 26.57355279 2.27259064 24.56417847 C2.27769008 21.75230806 2.26989766 18.94075326 2.25878906 16.12890625 C2.26283752 15.30480255 2.26688599 14.48069885 2.27105713 13.63162231 C2.26541748 12.85801361 2.25977783 12.08440491 2.25396729 11.28735352 C2.25321323 10.62445816 2.25245918 9.96156281 2.25168228 9.27857971 C1.90226765 6.11519019 0.87433528 3.06017347 0 0 Z " fill="#B8A174" transform="translate(595,292)"/>
<path d="M0 0 C3.41147754 1.70573877 5.38347495 3.03500427 7.4375 6.25 C8.21357066 10.04412325 8.18359667 13.29189651 7 17 C4.80742191 19.64233769 3.06660382 21.46669809 0 23 C-4.03556578 23.26462726 -6.98295818 23.33901394 -10.8125 22.0625 C-14.12232137 18.94181128 -15.26925637 15.44535707 -16 11 C-15.22197953 6.41832391 -13.52571713 3.97482383 -10 1 C-6.78268449 -0.60865775 -3.4892388 -0.46696133 0 0 Z " fill="#B8A174" transform="translate(1085,377)"/>
<path d="M0 0 C2.9375 2.5 2.9375 2.5 5 5 C3.1875 5.625 3.1875 5.625 1 6 C0.01 5.34 -0.98 4.68 -2 4 C-4.59889783 3.91975342 -4.59889783 3.91975342 -7 5 C-8.58612501 7.25696427 -8.58612501 7.25696427 -9 10 C-8.51617907 12.30136062 -8.51617907 12.30136062 -7 14 C-5.16666667 15.16666667 -5.16666667 15.16666667 -3 15 C-0.72855926 13.14567913 -0.72855926 13.14567913 1 11 C-0.98 11 -2.96 11 -5 11 C-5 10.01 -5 9.02 -5 8 C-1.7 8 1.6 8 5 8 C5.375 10.6875 5.375 10.6875 5 14 C2.44780875 16.99882471 0.89836417 18.75634023 -3.0390625 19.26171875 C-6.77677228 19.01673777 -8.60979796 18.33167174 -11.5 15.875 C-13.40479372 12.22414536 -13.5814173 10.06992108 -13 6 C-9.34110372 0.38969236 -6.66973311 -0.67827794 0 0 Z " fill="#FFFFFF" transform="translate(528,444)"/>
<path d="M0 0 C1.32 0 2.64 0 4 0 C4 2.64 4 5.28 4 8 C6.31 8 8.62 8 11 8 C11 5.36 11 2.72 11 0 C12.32 0 13.64 0 15 0 C15 5.94 15 11.88 15 18 C13.68 18 12.36 18 11 18 C11 15.69 11 13.38 11 11 C8.69 11 6.38 11 4 11 C4 13.31 4 15.62 4 18 C2.68 18 1.36 18 0 18 C0 12.06 0 6.12 0 0 Z " fill="#FFFFFF" transform="translate(950,444)"/>
<path d="M0 0 C9 0 9 0 11.5625 1.5 C12.036875 1.995 12.51125 2.49 13 3 C12.54177532 6.46941546 12.10868317 9.67395049 11 13 C11.87914688 15.6569191 11.87914688 15.6569191 13 18 C10.6875 17.8125 10.6875 17.8125 8 17 C6.1875 14.4375 6.1875 14.4375 5 12 C4.67 13.98 4.34 15.96 4 18 C2.68 18 1.36 18 0 18 C0 12.06 0 6.12 0 0 Z M4 3 C4 4.98 4 6.96 4 9 C5.65 8.67 7.3 8.34 9 8 C9.33 7.01 9.66 6.02 10 5 C9.34 4.34 8.68 3.68 8 3 C6.68 3 5.36 3 4 3 Z " fill="#FFFFFF" transform="translate(683,444)"/>
<path d="M0 0 C4.63235294 2.26470588 4.63235294 2.26470588 6 5 C6.50446145 9.2837874 6.76933896 12.8164016 4.375 16.5 C1.45480836 18.34433156 -0.54913726 18.85914846 -4 19 C-6.96363065 18.24186193 -8.5792554 17.39172773 -10.8125 15.3125 C-12.51833914 11.99060274 -12.45252566 9.68485182 -12 6 C-8.56065403 0.72633618 -6.24498522 -0.48980276 0 0 Z M-6.6875 4.25 C-8.22770432 6.30360576 -8.84853383 7.4250751 -9 10 C-7.64895985 13.22748481 -6.80129313 14.65071838 -3.5625 16.0625 C-0.89316986 16.21671192 -0.89316986 16.21671192 1.375 14.5 C3.3378796 11.9902437 3.3378796 11.9902437 2.9375 8.375 C2.3249155 4.74483076 2.3249155 4.74483076 -1 3 C-4.8143014 2.60318163 -4.8143014 2.60318163 -6.6875 4.25 Z " fill="#FFFFFF" transform="translate(603,444)"/>
<path d="M0 0 C2.69990662 1.79993774 4.5418865 3.083773 6 6 C6.03856643 10.06490221 5.98957601 13.82716918 3.3125 17 C0.41810773 18.25162909 -1.83437357 18.87079076 -5 19 C-7.87872577 17.6260627 -9.74989437 16.25010563 -12 14 C-12.50421994 10.96295432 -12.45467228 8.04197406 -12 5 C-8.60119919 0.46826559 -5.57565504 -0.54663285 0 0 Z M-7.4375 4.5 C-9.32872563 7.02112828 -9.32872563 7.02112828 -8.9375 10.625 C-8.3249155 14.25516924 -8.3249155 14.25516924 -5 16 C-2.44539786 16.07272562 -2.44539786 16.07272562 0 15 C2.09762034 12.89299553 2.09762034 12.89299553 3 10 C2.30059064 6.73185596 2.30059064 6.73185596 1 4 C-3.38980411 2.77770954 -3.38980411 2.77770954 -7.4375 4.5 Z " fill="#FFFFFF" transform="translate(871,444)"/>
<path d="M0 0 C9.61904762 0 9.61904762 0 12 2 C12.9375 4.3125 12.9375 4.3125 13 7 C12.46375 7.804375 11.9275 8.60875 11.375 9.4375 C10.92125 10.283125 10.4675 11.12875 10 12 C11.1915405 15.30128645 11.1915405 15.30128645 13 18 C10.6875 17.8125 10.6875 17.8125 8 17 C6.3125 14.5 6.3125 14.5 5 12 C4.34 11.67 3.68 11.34 3 11 C3 13.31 3 15.62 3 18 C2.01 18 1.02 18 0 18 C0 12.06 0 6.12 0 0 Z M3 3 C3 4.98 3 6.96 3 9 C4.98 8.67 6.96 8.34 9 8 C8.67 6.35 8.34 4.7 8 3 C6.35 3 4.7 3 3 3 Z " fill="#FFFFFF" transform="translate(1063,444)"/>
<path d="M0 0 C9.61904762 0 9.61904762 0 12 2 C12.9375 4.3125 12.9375 4.3125 13 7 C12.46375 7.804375 11.9275 8.60875 11.375 9.4375 C10.92125 10.283125 10.4675 11.12875 10 12 C11.1915405 15.30128645 11.1915405 15.30128645 13 18 C10.6875 17.8125 10.6875 17.8125 8 17 C6.3125 14.5 6.3125 14.5 5 12 C4.34 11.67 3.68 11.34 3 11 C3 13.31 3 15.62 3 18 C2.01 18 1.02 18 0 18 C0 12.06 0 6.12 0 0 Z M3 3 C3 4.98 3 6.96 3 9 C4.98 8.67 6.96 8.34 9 8 C8.67 6.35 8.34 4.7 8 3 C6.35 3 4.7 3 3 3 Z " fill="#FFFFFF" transform="translate(980,444)"/>
<path d="M0 0 C8 0 8 0 10.5 1.125 C12 3 12 3 12.375 5.9375 C12 9 12 9 10.875 11.0625 C9.69460607 13.10070585 9.69460607 13.10070585 10.875 15.75 C11.24625 16.4925 11.6175 17.235 12 18 C10.68 18 9.36 18 8 18 C5 13.92857143 5 13.92857143 5 11 C4.34 11 3.68 11 3 11 C3 13.31 3 15.62 3 18 C2.01 18 1.02 18 0 18 C0 12.06 0 6.12 0 0 Z M3 3 C3 4.98 3 6.96 3 9 C4.65 8.67 6.3 8.34 8 8 C8 6.68 8 5.36 8 4 C6.35 3.67 4.7 3.34 3 3 Z " fill="#FFFFFF" transform="translate(781,444)"/>
<path d="M0 0 C0.99 0 1.98 0 3 0 C3.33 4.62 3.66 9.24 4 14 C4.99 14.33 5.98 14.66 7 15 C7.66 14.67 8.32 14.34 9 14 C9.47001033 10.72444392 9.47001033 10.72444392 9.625 6.9375 C9.69976563 5.64714844 9.77453125 4.35679687 9.8515625 3.02734375 C9.90054688 2.02832031 9.94953125 1.02929688 10 0 C11.32 0 12.64 0 14 0 C14.08150744 2.06183633 14.1394194 4.12461349 14.1875 6.1875 C14.22230469 7.33605469 14.25710938 8.48460937 14.29296875 9.66796875 C13.97201631 13.31826779 13.24050855 15.12984033 11 18 C7.54725074 19.20095626 5.75656463 19.2794319 2.32421875 18.01171875 C0 16 0 16 -0.48828125 12.20703125 C-0.45512197 10.74139115 -0.39558979 9.27615861 -0.3125 7.8125 C-0.27866211 6.68811523 -0.27866211 6.68811523 -0.24414062 5.54101562 C-0.18529157 3.6931553 -0.09560938 1.84632333 0 0 Z " fill="#FFFFFF" transform="translate(796,444)"/>
<path d="M0 0 C8 0 8 0 10.5 1.125 C12 3 12 3 12.375 6 C12 9 12 9 10 12 C10.99 13.98 11.98 15.96 13 18 C11.35 18 9.7 18 8 18 C7.54625 17.030625 7.0925 16.06125 6.625 15.0625 C5.34213779 11.92920418 5.34213779 11.92920418 3 11 C3 13.31 3 15.62 3 18 C2.01 18 1.02 18 0 18 C0 12.06 0 6.12 0 0 Z M3 3 C3 4.98 3 6.96 3 9 C4.65 8.67 6.3 8.34 8 8 C8.59070014 6.05396726 8.59070014 6.05396726 9 4 C7.93354885 2.70366379 7.93354885 2.70366379 5.4375 2.9375 C4.633125 2.958125 3.82875 2.97875 3 3 Z " fill="#FFFFFF" transform="translate(879,444)"/>
<path d="M0 0 C1.32 0 2.64 0 4 0 C5.00399524 2.62353518 6.00334445 5.24867795 7 7.875 C7.28617188 8.62136719 7.57234375 9.36773437 7.8671875 10.13671875 C10 15.7734375 10 15.7734375 10 18 C8.68 18 7.36 18 6 18 C6 17.01 6 16.02 6 15 C3.36 15 0.72 15 -2 15 C-2 15.99 -2 16.98 -2 18 C-3.32 18 -4.64 18 -6 18 C-4.23536928 11.89262558 -2.30442525 5.92566493 0 0 Z M1 7 C0.67 8.65 0.34 10.3 0 12 C1.32 12 2.64 12 4 12 C3.67 10.35 3.34 8.7 3 7 C2.34 7 1.68 7 1 7 Z " fill="#FFFFFF" transform="translate(540,444)"/>
<path d="M0 0 C1.32 0 2.64 0 4 0 C5.00399524 2.62353518 6.00334445 5.24867795 7 7.875 C7.28617187 8.62136719 7.57234375 9.36773437 7.8671875 10.13671875 C10 15.7734375 10 15.7734375 10 18 C8.68 18 7.36 18 6 18 C6 17.01 6 16.02 6 15 C3.36 15 0.72 15 -2 15 C-2 15.99 -2 16.98 -2 18 C-3.32 18 -4.64 18 -6 18 C-4.23536928 11.89262558 -2.30442525 5.92566493 0 0 Z M1 7 C0.67 8.65 0.34 10.3 0 12 C1.32 12 2.64 12 4 12 C3.67 10.35 3.34 8.7 3 7 C2.34 7 1.68 7 1 7 Z " fill="#FFFFFF" transform="translate(474,444)"/>
<path d="M0 0 C1.32 0 2.64 0 4 0 C5.98 5.94 7.96 11.88 10 18 C8.68 18 7.36 18 6 18 C5.67 17.34 5.34 16.68 5 16 C2.67843403 15.59270772 0.3431213 15.25561323 -2 15 C-2.33 15.99 -2.66 16.98 -3 18 C-3.99 18 -4.98 18 -6 18 C-4.41039668 11.76559832 -2.72399099 5.83712355 0 0 Z M1 6 C0.67 7.98 0.34 9.96 0 12 C1.32 12 2.64 12 4 12 C3.34 10.02 2.68 8.04 2 6 C1.67 6 1.34 6 1 6 Z " fill="#FFFFFF" transform="translate(1013,444)"/>
<path d="M0 0 C1.32 0 2.64 0 4 0 C5.98 5.94 7.96 11.88 10 18 C8.68 18 7.36 18 6 18 C5.67 17.34 5.34 16.68 5 16 C2.67843403 15.59270772 0.3431213 15.25561323 -2 15 C-2.33 15.99 -2.66 16.98 -3 18 C-3.99 18 -4.98 18 -6 18 C-4.41039668 11.76559832 -2.72399099 5.83712355 0 0 Z M1 6 C0.67 7.98 0.34 9.96 0 12 C1.32 12 2.64 12 4 12 C3.34 10.02 2.68 8.04 2 6 C1.67 6 1.34 6 1 6 Z " fill="#FFFFFF" transform="translate(749,444)"/>
<path d="M0 0 C1.89355469 0.26147461 1.89355469 0.26147461 4 1 C5.00488281 2.67407227 5.00488281 2.67407227 5.703125 4.81640625 C5.9609375 5.58017578 6.21875 6.34394531 6.484375 7.13085938 C6.73703125 7.93330078 6.9896875 8.73574219 7.25 9.5625 C7.518125 10.36880859 7.78625 11.17511719 8.0625 12.00585938 C8.72298564 13.99911067 9.36341102 15.99898864 10 18 C8.68 18 7.36 18 6 18 C5.67 17.34 5.34 16.68 5 16 C2.67843403 15.59270772 0.3431213 15.25561323 -2 15 C-2.33 15.99 -2.66 16.98 -3 18 C-3.99 18 -4.98 18 -6 18 C-5.41347648 13.51006131 -4.2356462 9.77456816 -2.4375 5.625 C-1.98246094 4.56539063 -1.52742187 3.50578125 -1.05859375 2.4140625 C-0.70925781 1.61742187 -0.35992188 0.82078125 0 0 Z M1 6 C0.34 7.98 -0.32 9.96 -1 12 C0.65 12 2.3 12 4 12 C3.34 10.02 2.68 8.04 2 6 C1.67 6 1.34 6 1 6 Z " fill="#FFFFFF" transform="translate(672,444)"/>
<path d="M0 0 C2.875 1.875 2.875 1.875 5 4 C5 4.66 5 5.32 5 6 C3.68 6 2.36 6 1 6 C1 5.34 1 4.68 1 4 C-3.14984647 3.67768793 -3.14984647 3.67768793 -6.9375 5.125 C-8.25902304 7.08505482 -8.25902304 7.08505482 -7.9375 10.0625 C-7.27669638 13.04589825 -7.27669638 13.04589825 -5.1875 14.5 C-2.36853966 15.14433379 -1.46997223 14.38935938 1 13 C2.32 13 3.64 13 5 13 C4.06788763 15.33028092 3.30996602 16.75891532 1.3125 18.3125 C-2.15265918 19.34268246 -4.52817876 18.92995212 -8 18 C-11.21047395 15.20112527 -11.9278069 13.68583444 -12.375 9.4375 C-11.8336887 4.47547974 -11.8336887 4.47547974 -10 2 C-6.77706714 -0.3020949 -3.88003676 -0.47510654 0 0 Z " fill="#FFFFFF" transform="translate(563,444)"/>
<path d="M0 0 C0.33 1.32 0.66 2.64 1 4 C-1.31 3.67 -3.62 3.34 -6 3 C-6.33 3.66 -6.66 4.32 -7 5 C-6.43410156 5.24234375 -5.86820313 5.4846875 -5.28515625 5.734375 C-4.55167969 6.06953125 -3.81820312 6.4046875 -3.0625 6.75 C-2.33160156 7.07484375 -1.60070312 7.3996875 -0.84765625 7.734375 C1 9 1 9 1.78515625 11.00390625 C2 13 2 13 1.5 15.1875 C0 17 0 17 -3.375 17.9375 C-7 18 -7 18 -9.4375 16.75 C-11 15 -11 15 -11 12 C-10.1646875 12.2165625 -10.1646875 12.2165625 -9.3125 12.4375 C-6.88615805 13.02769128 -4.45093655 13.523429 -2 14 C-2.33 13.01 -2.66 12.02 -3 11 C-5.30252483 9.93097061 -7.6372026 8.92824183 -10 8 C-11 7 -11 7 -11.3125 4.625 C-11 2 -11 2 -9.4375 0.125 C-6.03118195 -1.44714679 -3.59718087 -0.76094211 0 0 Z " fill="#FFFFFF" transform="translate(823,445)"/>
<path d="M0 0 C2.875 1.875 2.875 1.875 5 4 C5 4.66 5 5.32 5 6 C2.42468185 5.48493637 -0.09782556 4.97204984 -2.625 4.25 C-5.00102632 3.77562048 -5.00102632 3.77562048 -6.875 5 C-8.62020832 8.10259257 -7.69997967 10.6273707 -7 14 C-4.50702038 14.89034986 -3.44895901 15.21044954 -1 14.0625 C-0.34 13.711875 0.32 13.36125 1 13 C2.32 13 3.64 13 5 13 C3.99610425 15.73789749 3.3046066 16.82231282 0.75 18.3125 C-2.62766132 19.15691533 -4.66487464 18.9934416 -8 18 C-10.375 16.5 -10.375 16.5 -12 14 C-12.55859786 10.89921187 -12.58096808 8.09849645 -12 5 C-8.60119919 0.46826559 -5.57565504 -0.54663285 0 0 Z " fill="#FFFFFF" transform="translate(642,444)"/>
<path d="M0 0 C0.99 0 1.98 0 3 0 C3 2.64 3 5.28 3 8 C5.64 8 8.28 8 11 8 C11 5.36 11 2.72 11 0 C11.99 0 12.98 0 14 0 C14 5.94 14 11.88 14 18 C13.01 18 12.02 18 11 18 C11 15.69 11 13.38 11 11 C8.36 11 5.72 11 3 11 C3 13.31 3 15.62 3 18 C2.01 18 1.02 18 0 18 C0 12.06 0 6.12 0 0 Z " fill="#FFFFFF" transform="translate(914,444)"/>
<path d="M0 0 C0.99 0 1.98 0 3 0 C3 2.64 3 5.28 3 8 C5.64 8 8.28 8 11 8 C11 5.36 11 2.72 11 0 C11.99 0 12.98 0 14 0 C14 5.94 14 11.88 14 18 C13.01 18 12.02 18 11 18 C11 15.69 11 13.38 11 11 C8.36 11 5.72 11 3 11 C3 13.31 3 15.62 3 18 C2.01 18 1.02 18 0 18 C0 12.06 0 6.12 0 0 Z " fill="#FFFFFF" transform="translate(650,444)"/>
<path d="M0 0 C3.63 0 7.26 0 11 0 C11 0.99 11 1.98 11 3 C8.69 3 6.38 3 4 3 C4 4.65 4 6.3 4 8 C5.98 8 7.96 8 10 8 C10 8.99 10 9.98 10 11 C8.02 11 6.04 11 4 11 C4 12.65 4 14.3 4 16 C6.31 16 8.62 16 11 16 C11 16.66 11 17.32 11 18 C7.37 18 3.74 18 0 18 C0 12.06 0 6.12 0 0 Z " fill="#FFFFFF" transform="translate(1050,444)"/>
<path d="M0 0 C3.63 0 7.26 0 11 0 C11 0.99 11 1.98 11 3 C8.69 3 6.38 3 4 3 C4 4.65 4 6.3 4 8 C5.98 8 7.96 8 10 8 C10 8.99 10 9.98 10 11 C8.02 11 6.04 11 4 11 C4 12.65 4 14.3 4 16 C6.31 16 8.62 16 11 16 C11 16.66 11 17.32 11 18 C7.37 18 3.74 18 0 18 C0 12.06 0 6.12 0 0 Z " fill="#FFFFFF" transform="translate(967,444)"/>
<path d="M0 0 C3.63 0 7.26 0 11 0 C11 0.99 11 1.98 11 3 C8.69 3 6.38 3 4 3 C4 4.65 4 6.3 4 8 C5.98 8 7.96 8 10 8 C10 8.99 10 9.98 10 11 C8.02 11 6.04 11 4 11 C4 13.31 4 15.62 4 18 C2.68 18 1.36 18 0 18 C0 12.06 0 6.12 0 0 Z " fill="#FFFFFF" transform="translate(611,444)"/>
<path d="M0 0 C3.3 0 6.6 0 10 0 C10 0.99 10 1.98 10 3 C7.69 3 5.38 3 3 3 C3 4.65 3 6.3 3 8 C5.31 8 7.62 8 10 8 C10 8.99 10 9.98 10 11 C7.69 11 5.38 11 3 11 C3 12.65 3 14.3 3 16 C5.31 16 7.62 16 10 16 C10 16.66 10 17.32 10 18 C6.7 18 3.4 18 0 18 C0 12.06 0 6.12 0 0 Z " fill="#FFFFFF" transform="translate(995,444)"/>
<path d="M0 0 C3.3 0 6.6 0 10 0 C10 0.99 10 1.98 10 3 C7.69 3 5.38 3 3 3 C3 4.65 3 6.3 3 8 C5.31 8 7.62 8 10 8 C10 8.99 10 9.98 10 11 C7.69 11 5.38 11 3 11 C3 12.65 3 14.3 3 16 C5.31 16 7.62 16 10 16 C10 16.66 10 17.32 10 18 C6.7 18 3.4 18 0 18 C0 12.06 0 6.12 0 0 Z " fill="#FFFFFF" transform="translate(931,444)"/>
<path d="M0 0 C3.3 0 6.6 0 10 0 C10 0.99 10 1.98 10 3 C7.69 3 5.38 3 3 3 C3 4.65 3 6.3 3 8 C5.31 8 7.62 8 10 8 C10 8.99 10 9.98 10 11 C7.69 11 5.38 11 3 11 C3 12.65 3 14.3 3 16 C5.31 16 7.62 16 10 16 C10 16.66 10 17.32 10 18 C6.7 18 3.4 18 0 18 C0 12.06 0 6.12 0 0 Z " fill="#FFFFFF" transform="translate(503,444)"/>
<path d="M0 0 C1.8125 0.125 1.8125 0.125 4 1 C5.75 4.0625 5.75 4.0625 7 7 C7.99 4.69 8.98 2.38 10 0 C11.32 0 12.64 0 14 0 C13.01870212 3.17034699 11.9734496 6.05097677 10.4375 9 C8.97094529 12.06063592 8.39916682 14.64699875 8 18 C7.01 18 6.02 18 5 18 C4.89042969 17.41992188 4.78085937 16.83984375 4.66796875 16.2421875 C3.67930257 11.37119805 2.32101377 7.43102629 0 3 C0 2.01 0 1.02 0 0 Z " fill="#FFFFFF" transform="translate(717,444)"/>
<path d="M0 0 C1.8125 0.125 1.8125 0.125 4 1 C5.75 4.0625 5.75 4.0625 7 7 C7.99 4.69 8.98 2.38 10 0 C11.32 0 12.64 0 14 0 C13.01870212 3.17034699 11.9734496 6.05097677 10.4375 9 C8.97094529 12.06063592 8.39916682 14.64699875 8 18 C7.01 18 6.02 18 5 18 C4.89042969 17.41992188 4.78085937 16.83984375 4.66796875 16.2421875 C3.67930257 11.37119805 2.32101377 7.43102629 0 3 C0 2.01 0 1.02 0 0 Z " fill="#FFFFFF" transform="translate(570,444)"/>
<path d="M0 0 C3.63 0 7.26 0 11 0 C11 0.99 11 1.98 11 3 C8.36 3 5.72 3 3 3 C3 4.65 3 6.3 3 8 C4.98 8 6.96 8 9 8 C9 8.99 9 9.98 9 11 C7.02 11 5.04 11 3 11 C3 13.31 3 15.62 3 18 C2.01 18 1.02 18 0 18 C0 12.06 0 6.12 0 0 Z " fill="#FFFFFF" transform="translate(847,444)"/>
<path d="M0 0 C3.96 0 7.92 0 12 0 C12 0.99 12 1.98 12 3 C10.68 3 9.36 3 8 3 C8 7.95 8 12.9 8 18 C6.68 18 5.36 18 4 18 C4 13.05 4 8.1 4 3 C2.68 3 1.36 3 0 3 C0 2.01 0 1.02 0 0 Z " fill="#FFFFFF" transform="translate(704,444)"/>
<path d="M0 0 C3.3 0 6.6 0 10 0 C10 0.99 10 1.98 10 3 C7.69 3 5.38 3 3 3 C3 4.65 3 6.3 3 8 C4.98 8 6.96 8 9 8 C9 8.99 9 9.98 9 11 C7.02 11 5.04 11 3 11 C3 13.31 3 15.62 3 18 C2.01 18 1.02 18 0 18 C0 12.06 0 6.12 0 0 Z " fill="#FFFFFF" transform="translate(1025,444)"/>
<path d="M0 0 C4.29 0 8.58 0 13 0 C13 0.99 13 1.98 13 3 C11.35 3 9.7 3 8 3 C8 7.95 8 12.9 8 18 C7.01 18 6.02 18 5 18 C5 13.05 5 8.1 5 3 C3.35 3 1.7 3 0 3 C0 2.01 0 1.02 0 0 Z " fill="#FFFFFF" transform="translate(1036,444)"/>
<path d="M0 0 C4.29 0 8.58 0 13 0 C13 0.99 13 1.98 13 3 C11.35 3 9.7 3 8 3 C8 7.95 8 12.9 8 18 C7.01 18 6.02 18 5 18 C5 13.05 5 8.1 5 3 C3.35 3 1.7 3 0 3 C0 2.01 0 1.02 0 0 Z " fill="#FFFFFF" transform="translate(899,444)"/>
<path d="M0 0 C4.29 0 8.58 0 13 0 C13 0.99 13 1.98 13 3 C11.35 3 9.7 3 8 3 C8 7.95 8 12.9 8 18 C7.01 18 6.02 18 5 18 C5 13.05 5 8.1 5 3 C3.35 3 1.7 3 0 3 C0 2.01 0 1.02 0 0 Z " fill="#FFFFFF" transform="translate(826,444)"/>
<path d="M0 0 C4.29 0 8.58 0 13 0 C13 0.99 13 1.98 13 3 C11.35 3 9.7 3 8 3 C8 7.95 8 12.9 8 18 C7.01 18 6.02 18 5 18 C5 13.05 5 8.1 5 3 C3.35 3 1.7 3 0 3 C0 2.01 0 1.02 0 0 Z " fill="#FFFFFF" transform="translate(766,444)"/>
<path d="M0 0 C1.32 0 2.64 0 4 0 C4 5.28 4 10.56 4 16 C5.98 16 7.96 16 10 16 C10 16.66 10 17.32 10 18 C6.7 18 3.4 18 0 18 C0 12.06 0 6.12 0 0 Z " fill="#FFFFFF" transform="translate(492,444)"/>
<path d="M0 0 C0.99 0 1.98 0 3 0 C3 5.94 3 11.88 3 18 C1.68 18 0.36 18 -1 18 C-1.02684312 15.18743719 -1.04676188 12.37512759 -1.0625 9.5625 C-1.07087891 8.76005859 -1.07925781 7.95761719 -1.08789062 7.13085938 C-1.0965143 5.08704779 -1.0522815 3.04316098 -1 1 C-0.67 0.67 -0.34 0.34 0 0 Z " fill="#FFFFFF" transform="translate(699,444)"/>
<path d="M0 0 C1.32 0.33 2.64 0.66 4 1 C3.01 2.98 2.02 4.96 1 7 C0.01 6.67 -0.98 6.34 -2 6 C-1.34 4.02 -0.68 2.04 0 0 Z " fill="#FFFFFF" transform="translate(732,459)"/>
</svg>
