<svg width="200" height="200" viewBox="0 0 200 200" xmlns="http://www.w3.org/2000/svg">
  <defs>
    <pattern id="islamicPattern" x="0" y="0" width="100" height="100" patternUnits="userSpaceOnUse">
      <!-- 8-pointed star (Khatam) -->
      <g fill="currentColor" opacity="0.1">
        <polygon points="50,10 60,30 80,20 70,40 90,50 70,60 80,80 60,70 50,90 40,70 20,80 30,60 10,50 30,40 20,20 40,30" />
        <!-- Small decorative circles -->
        <circle cx="25" cy="25" r="3" />
        <circle cx="75" cy="25" r="3" />
        <circle cx="25" cy="75" r="3" />
        <circle cx="75" cy="75" r="3" />
        <!-- Connecting lines -->
        <line x1="25" y1="25" x2="75" y2="25" stroke="currentColor" stroke-width="1" opacity="0.05" />
        <line x1="25" y1="75" x2="75" y2="75" stroke="currentColor" stroke-width="1" opacity="0.05" />
        <line x1="25" y1="25" x2="25" y2="75" stroke="currentColor" stroke-width="1" opacity="0.05" />
        <line x1="75" y1="25" x2="75" y2="75" stroke="currentColor" stroke-width="1" opacity="0.05" />
      </g>
    </pattern>
  </defs>
  <rect width="200" height="200" fill="url(#islamicPattern)" />
</svg>
